<svg width="70" height="18" viewBox="0 0 70 18" fill="none" xmlns="http://www.w3.org/2000/svg">
<g clip-path="url(#clip0_44_29335)">
<mask id="mask0_44_29335" style="mask-type:luminance" maskUnits="userSpaceOnUse" x="0" y="0" width="70" height="18">
<path d="M70 0H0V18H70V0Z" fill="white"/>
</mask>
<g mask="url(#mask0_44_29335)">
<path d="M26.7574 0.42334L20.7183 16.3751H23.9638L25.2171 13.0435H31.629L32.8763 16.3751H36.0972L30.0804 0.42334H26.7574ZM26.3168 10.1159L28.4297 4.50267L30.5308 10.1159H26.3168Z" fill="white"/>
<path d="M64.2562 4.96704C63.1204 4.96704 62.0105 5.30743 61.0664 5.9452C60.1222 6.58292 59.3866 7.48941 58.9523 8.54989C58.5175 9.61043 58.4041 10.7774 58.6253 11.9032C58.8469 13.0291 59.3937 14.0633 60.1967 14.875C60.9994 15.6867 62.0222 16.2394 63.1359 16.4634C64.2496 16.6873 65.4041 16.5724 66.4532 16.1331C67.5018 15.6938 68.3986 14.9499 69.0292 13.9955C69.6603 13.041 69.9968 11.9189 69.9968 10.771C69.9968 9.23167 69.3919 7.75543 68.3156 6.667C67.2389 5.57852 65.7785 4.96704 64.2562 4.96704ZM64.2562 13.5991C63.7028 13.5991 63.1621 13.4332 62.7025 13.1226C62.2424 12.8119 61.884 12.3703 61.6722 11.8537C61.4604 11.3371 61.4051 10.7686 61.5133 10.2202C61.6211 9.67172 61.8872 9.16791 62.2785 8.77253C62.6697 8.37709 63.1678 8.1078 63.7103 7.99871C64.2529 7.88963 64.8152 7.94561 65.3263 8.15963C65.837 8.37359 66.2742 8.736 66.5816 9.20093C66.8885 9.66589 67.0524 10.2125 67.0524 10.7718C67.0534 11.1432 66.9812 11.5111 66.8411 11.8544C66.7006 12.1977 66.4949 12.5096 66.2348 12.7723C65.9753 13.035 65.6665 13.2432 65.3268 13.3851C64.9876 13.5269 64.6235 13.5997 64.2562 13.5991Z" fill="white"/>
<path d="M39.9646 12.2611L37.3432 5.16821H34.2476L38.4668 16.3751H41.5378L45.6816 5.16821H42.586L39.9646 12.2611Z" fill="white"/>
<path d="M55.4181 2.19019H52.4724V5.16829H50.75V7.84413H52.4724V12.6146C52.4724 15.3154 53.9454 16.4761 56.0173 16.4761C56.7201 16.4864 57.4173 16.3488 58.0649 16.0721V13.296C57.7125 13.4273 57.341 13.4969 56.9657 13.5018C56.0712 13.5018 55.4181 13.1483 55.4181 11.937V7.84413H58.0649V5.16829H55.4181V2.19019Z" fill="white"/>
<path d="M48.1034 4.36092C49.2893 4.36092 50.2507 3.38902 50.2507 2.1901C50.2507 0.991194 49.2893 0.0192871 48.1034 0.0192871C46.9175 0.0192871 45.9561 0.991194 45.9561 2.1901C45.9561 3.38902 46.9175 4.36092 48.1034 4.36092Z" fill="white"/>
<path d="M49.5765 5.16821H46.6309V16.3751H49.5765V5.16821Z" fill="white"/>
<path d="M5.76142 17.9656C8.93283 17.9656 11.5038 15.3664 11.5038 12.1602C11.5038 8.95389 8.93283 6.35474 5.76142 6.35474C2.59 6.35474 0.019043 8.95389 0.019043 12.1602C0.019043 15.3664 2.59 17.9656 5.76142 17.9656Z" fill="#04E061"/>
<path d="M15.7229 17.2328C17.6392 17.2328 19.1927 15.6622 19.1927 13.7248C19.1927 11.7873 17.6392 10.2168 15.7229 10.2168C13.8065 10.2168 12.2529 11.7873 12.2529 13.7248C12.2529 15.6622 13.8065 17.2328 15.7229 17.2328Z" fill="#FF4053"/>
<path d="M6.85963 5.59774C8.04556 5.59774 9.00691 4.62583 9.00691 3.42692C9.00691 2.22801 8.04556 1.2561 6.85963 1.2561C5.67375 1.2561 4.7124 2.22801 4.7124 3.42692C4.7124 4.62583 5.67375 5.59774 6.85963 5.59774Z" fill="#965EEB"/>
<path d="M14.3748 9.45935C16.9533 9.45935 19.0436 7.3461 19.0436 4.73932C19.0436 2.13251 16.9533 0.0192871 14.3748 0.0192871C11.7963 0.0192871 9.70605 2.13251 9.70605 4.73932C9.70605 7.3461 11.7963 9.45935 14.3748 9.45935Z" fill="#00AAFF"/>
</g>
</g>
<defs>
<clipPath id="clip0_44_29335">
<rect width="70" height="18" fill="white"/>
</clipPath>
</defs>
</svg>
