<svg width="80" height="20" viewBox="0 0 80 20" fill="none" xmlns="http://www.w3.org/2000/svg">
<g clip-path="url(#clip0_44_29410)">
<mask id="mask0_44_29410" style="mask-type:luminance" maskUnits="userSpaceOnUse" x="0" y="0" width="80" height="20">
<path d="M80 0H0V20H80V0Z" fill="white"/>
</mask>
<g mask="url(#mask0_44_29410)">
<path d="M30.5801 0.470215L23.6782 18.1944H27.3874L28.8197 14.4926H36.1476L37.5732 18.1944H41.2541L34.3778 0.470215H30.5801ZM30.0765 11.2397L32.4913 5.0028L34.8925 11.2397H30.0765Z" fill="black"/>
<path d="M73.4357 5.51904C72.1377 5.51904 70.8692 5.89725 69.7902 6.60588C68.7112 7.31446 67.8705 8.32167 67.3741 9.49999C66.8772 10.6784 66.7476 11.975 67.0004 13.2259C67.2536 14.4769 67.8786 15.626 68.7964 16.5278C69.7136 17.4297 70.8826 18.0439 72.1554 18.2928C73.4282 18.5416 74.7476 18.4139 75.9466 17.9258C77.145 17.4377 78.1699 16.6111 78.8906 15.5506C79.6119 14.4901 79.9964 13.2433 79.9964 11.9679C79.9964 10.2575 79.3051 8.61725 78.0751 7.40789C76.8446 6.19846 75.1755 5.51904 73.4357 5.51904ZM73.4357 15.1102C72.8033 15.1102 72.1854 14.9259 71.6601 14.5808C71.1342 14.2356 70.7246 13.7449 70.4826 13.1709C70.2405 12.5969 70.1773 11.9652 70.301 11.3558C70.4242 10.7465 70.7283 10.1867 71.1755 9.74736C71.6226 9.30799 72.1918 9.00878 72.8119 8.88757C73.432 8.76636 74.0745 8.82857 74.6587 9.06636C75.2424 9.3041 75.742 9.70678 76.0933 10.2234C76.444 10.74 76.6314 11.3474 76.6314 11.9687C76.6325 12.3814 76.55 12.7903 76.3899 13.1717C76.2293 13.5531 75.9942 13.8997 75.697 14.1915C75.4004 14.4834 75.0475 14.7148 74.6593 14.8724C74.2716 15.03 73.8555 15.1108 73.4357 15.1102Z" fill="black"/>
<path d="M45.6739 13.6236L42.678 5.74268H39.1401L43.9621 18.1947H47.4718L52.2077 5.74268H48.6698L45.6739 13.6236Z" fill="black"/>
<path d="M63.3349 2.43359H59.9684V5.74259H58V8.71575H59.9684V14.0163C59.9684 17.0171 61.6519 18.3069 64.0198 18.3069C64.823 18.3183 65.6198 18.1654 66.3598 17.858V14.7734C65.9572 14.9193 65.5325 14.9966 65.1036 15.0021C64.0814 15.0021 63.3349 14.6093 63.3349 13.2634V8.71575H66.3598V5.74259H63.3349V2.43359Z" fill="black"/>
<path d="M54.9756 4.84552C56.3309 4.84552 57.4296 3.76563 57.4296 2.4335C57.4296 1.10138 56.3309 0.0214844 54.9756 0.0214844C53.6203 0.0214844 52.5215 1.10138 52.5215 2.4335C52.5215 3.76563 53.6203 4.84552 54.9756 4.84552Z" fill="black"/>
<path d="M56.6589 5.74268H53.2925V18.1947H56.6589V5.74268Z" fill="black"/>
<path d="M6.58469 19.9615C10.2092 19.9615 13.1474 17.0735 13.1474 13.511C13.1474 9.94849 10.2092 7.06055 6.58469 7.06055C2.96021 7.06055 0.0219727 9.94849 0.0219727 13.511C0.0219727 17.0735 2.96021 19.9615 6.58469 19.9615Z" fill="#04E061"/>
<path d="M17.9695 19.1476C20.1597 19.1476 21.9351 17.4025 21.9351 15.2498C21.9351 13.0971 20.1597 11.3521 17.9695 11.3521C15.7794 11.3521 14.0039 13.0971 14.0039 15.2498C14.0039 17.4025 15.7794 19.1476 17.9695 19.1476Z" fill="#FF4053"/>
<path d="M7.83972 6.22004C9.19506 6.22004 10.2937 5.14014 10.2937 3.80802C10.2937 2.4759 9.19506 1.396 7.83972 1.396C6.48443 1.396 5.38574 2.4759 5.38574 3.80802C5.38574 5.14014 6.48443 6.22004 7.83972 6.22004Z" fill="#965EEB"/>
<path d="M16.4285 10.5104C19.3753 10.5104 21.7643 8.16239 21.7643 5.26597C21.7643 2.36951 19.3753 0.0214844 16.4285 0.0214844C13.4816 0.0214844 11.0928 2.36951 11.0928 5.26597C11.0928 8.16239 13.4816 10.5104 16.4285 10.5104Z" fill="#00AAFF"/>
</g>
</g>
<defs>
<clipPath id="clip0_44_29410">
<rect width="80" height="20" fill="white"/>
</clipPath>
</defs>
</svg>
