<svg width="17" height="13" viewBox="0 0 17 13" fill="none" xmlns="http://www.w3.org/2000/svg">
<path d="M16.1637 1.78839L6.16374 11.7884C6.07664 11.8758 5.97314 11.9451 5.85919 11.9925C5.74524 12.0398 5.62306 12.0641 5.49967 12.0641C5.37628 12.0641 5.25411 12.0398 5.14016 11.9925C5.0262 11.9451 4.92271 11.8758 4.83561 11.7884L0.460611 7.4134C0.373405 7.32619 0.304229 7.22266 0.257034 7.10872C0.209838 6.99478 0.185547 6.87266 0.185547 6.74933C0.185547 6.626 0.209838 6.50388 0.257034 6.38994C0.304229 6.276 0.373405 6.17248 0.460611 6.08527C0.547816 5.99806 0.651345 5.92889 0.765285 5.88169C0.879225 5.8345 1.00135 5.81021 1.12467 5.81021C1.248 5.81021 1.37012 5.8345 1.48406 5.88169C1.598 5.92889 1.70153 5.99806 1.78874 6.08527L5.50045 9.79699L14.8372 0.461831C15.0133 0.285711 15.2522 0.186768 15.5012 0.186768C15.7503 0.186768 15.9892 0.285711 16.1653 0.461831C16.3414 0.637951 16.4404 0.876822 16.4404 1.12589C16.4404 1.37497 16.3414 1.61384 16.1653 1.78996L16.1637 1.78839Z" fill="#44CC00"/>
</svg>
