<svg width="14" height="10" viewBox="0 0 14 10" fill="none" xmlns="http://www.w3.org/2000/svg">
<path d="M13.5306 1.53032L5.5306 9.53033C5.46092 9.60025 5.37813 9.65572 5.28696 9.69358C5.1958 9.73143 5.09806 9.75092 4.99935 9.75092C4.90064 9.75092 4.8029 9.73143 4.71173 9.69358C4.62057 9.65572 4.53778 9.60025 4.4681 9.53033L0.968098 6.03033C0.898333 5.96056 0.842993 5.87774 0.805236 5.78659C0.76748 5.69543 0.748047 5.59774 0.748047 5.49908C0.748047 5.40041 0.76748 5.30272 0.805236 5.21156C0.842993 5.12041 0.898333 5.03759 0.968098 4.96783C1.03786 4.89806 1.12069 4.84272 1.21184 4.80496C1.30299 4.76721 1.40069 4.74777 1.49935 4.74777C1.59801 4.74777 1.69571 4.76721 1.78686 4.80496C1.87801 4.84272 1.96083 4.89806 2.0306 4.96783L4.99997 7.9372L12.4693 0.469074C12.6102 0.328178 12.8013 0.249023 13.0006 0.249023C13.1999 0.249023 13.391 0.328178 13.5318 0.469074C13.6727 0.609971 13.7519 0.801067 13.7519 1.00032C13.7519 1.19958 13.6727 1.39068 13.5318 1.53157L13.5306 1.53032Z" fill="white"/>
</svg>
