<svg width="21" height="24" viewBox="0 0 21 24" fill="none" xmlns="http://www.w3.org/2000/svg">
<path d="M20.24 12.4284L11.2647 21.3972C10.0336 22.6278 8.36405 23.3191 6.62332 23.3187C4.88258 23.3184 3.21327 22.6266 1.9826 21.3955C0.751936 20.1644 0.0607276 18.4949 0.0610353 16.7541C0.0613429 15.0134 0.753141 13.3441 1.98424 12.1134L12.7205 1.40671C13.5413 0.586363 14.6543 0.125669 15.8148 0.125977C16.3894 0.126129 16.9583 0.239456 17.4891 0.459486C18.0199 0.679516 18.5022 1.00194 18.9084 1.40835C19.3146 1.81476 19.6367 2.2972 19.8565 2.82812C20.0762 3.35904 20.1893 3.92804 20.1891 4.50264C20.189 5.07723 20.0756 5.64618 19.8556 6.17698C19.6356 6.70778 19.3132 7.19005 18.9067 7.59624L18.8881 7.61374L8.41002 17.7003C8.28578 17.8198 8.13922 17.9137 7.9787 17.9765C7.81818 18.0394 7.64686 18.07 7.4745 18.0667C7.30215 18.0633 7.13214 18.026 6.97419 17.957C6.81624 17.8879 6.67343 17.7885 6.55393 17.6642C6.43443 17.54 6.34057 17.3934 6.27771 17.2329C6.21485 17.0724 6.18422 16.901 6.18757 16.7287C6.19092 16.5563 6.22819 16.3863 6.29724 16.2284C6.36629 16.0704 6.46578 15.9276 6.59002 15.8081L17.0583 5.73249C17.3855 5.40325 17.5685 4.95751 17.5671 4.49333C17.5657 4.02915 17.3799 3.58455 17.0506 3.25734C16.8876 3.09532 16.6943 2.967 16.4817 2.8797C16.2691 2.7924 16.0413 2.74783 15.8115 2.74854C15.3473 2.74998 14.9027 2.93575 14.5755 3.26499L3.83924 13.9684C3.10084 14.7071 2.68613 15.7089 2.68633 16.7533C2.68644 17.2705 2.7884 17.7826 2.9864 18.2603C3.18441 18.7381 3.47458 19.1722 3.84034 19.5378C4.2061 19.9034 4.64029 20.1934 5.11813 20.3912C5.59597 20.5891 6.10809 20.6908 6.62525 20.6907C7.66971 20.6905 8.67131 20.2754 9.40971 19.5367L18.385 10.568C18.5071 10.4459 18.6521 10.349 18.8116 10.283C18.9711 10.2169 19.1421 10.1829 19.3147 10.1829C19.4874 10.1829 19.6583 10.2169 19.8179 10.283C19.9774 10.349 20.1223 10.4459 20.2444 10.568C20.3665 10.69 20.4633 10.835 20.5294 10.9945C20.5955 11.154 20.6295 11.325 20.6295 11.4976C20.6295 11.6703 20.5955 11.8413 20.5294 12.0008C20.4633 12.1603 20.3665 12.3052 20.2444 12.4273L20.24 12.4284Z" fill="#0066CC"/>
</svg>
