<svg width="15" height="9" viewBox="0 0 15 9" fill="none" xmlns="http://www.w3.org/2000/svg">
<path d="M14.4132 2.30612L8.16325 8.55612C8.07615 8.64352 7.97266 8.71286 7.8587 8.76018C7.74475 8.8075 7.62257 8.83186 7.49918 8.83186C7.3758 8.83186 7.25362 8.8075 7.13967 8.76018C7.02571 8.71286 6.92222 8.64352 6.83512 8.55612L0.585122 2.30612C0.409002 2.13 0.310059 1.89113 0.310059 1.64206C0.310059 1.39298 0.409002 1.15411 0.585122 0.977993C0.761243 0.801873 1.00011 0.70293 1.24918 0.70293C1.49826 0.70293 1.73713 0.801873 1.91325 0.977993L7.49997 6.56471L13.0867 0.977213C13.2628 0.801092 13.5017 0.702148 13.7507 0.702148C13.9998 0.702148 14.2387 0.801092 14.4148 0.977213C14.5909 1.15333 14.6899 1.3922 14.6899 1.64127C14.6899 1.89035 14.5909 2.12922 14.4148 2.30534L14.4132 2.30612Z" fill="#0A0A29"/>
</svg>
