<svg width="182" height="54" viewBox="0 0 182 54" fill="none" xmlns="http://www.w3.org/2000/svg">
<g clip-path="url(#clip0_44_29503)">
<path d="M65.9964 34.4116V44.1345H64.1086V34.4116H62.1216V44.1345C62.1216 45.2062 63.0356 46.1026 64.1086 46.1026H65.9964V48.0511H62.1216V49.9996H65.9964C67.0892 49.9996 67.9834 49.0839 67.9834 48.0511V34.4117H65.9964V34.4116ZM71.5599 34.4116C70.4671 34.4116 69.5729 35.3273 69.5729 36.3601V44.1345C69.5729 45.2062 70.4869 46.1026 71.5599 46.1026H73.4477V48.0511H69.5729V49.9996H73.4477C74.5405 49.9996 75.4347 49.0839 75.4347 48.0511V34.4117H71.5599V34.4116ZM71.5599 44.1345V36.3601H73.4477V44.1345H71.5599ZM82.886 36.3601C82.886 35.3274 81.992 34.4116 80.899 34.4116H79.0113C77.9184 34.4116 77.0242 35.3273 77.0242 36.3601V38.3086H79.0113V36.3601H80.899V40.3934H79.0113C77.9384 40.3934 77.0242 41.0756 77.0242 41.9133V46.1026C77.0242 47.1546 77.9183 48.0511 79.0113 48.0511H82.886V36.3602V36.3601ZM79.0113 46.1026V41.9133H80.899V46.1026H79.0113ZM83.8796 48.0511H85.6878L86.7806 40.2377L87.8735 48.0511H89.6815L87.7741 34.4117H85.7871L83.8796 48.0511ZM90.675 46.1026C90.675 47.1546 91.5691 48.0511 92.6621 48.0511H94.5498C95.6427 48.0511 96.5369 47.1548 96.5369 46.1026V44.1541H94.5498V46.1026H92.6621V42.0886H94.5498C95.6227 42.0886 96.5369 41.3871 96.5369 40.5689V36.3602C96.5369 35.3276 95.6428 34.4117 94.5498 34.4117H92.6621C91.5693 34.4117 90.675 35.3274 90.675 36.3602V46.1027V46.1026ZM94.5498 36.3601V40.5688H92.6621V36.3601H94.5498ZM100.113 48.0509V41.9133H102.001V48.0509H103.988V34.4116H102.001V40.3933H100.113V34.4116H98.1264V48.0509H100.113ZM111.44 48.0509V34.4116H109.452L107.565 42.0107V34.4116H105.578V48.0509H107.565L109.452 40.4518V48.0509H111.44ZM113.029 46.1024C113.029 47.1545 113.923 48.0509 115.016 48.0509H116.904C117.997 48.0509 118.891 47.1547 118.891 46.1024V44.1539H116.904V46.1024H115.016V42.0885H116.904C117.977 42.0885 118.891 41.387 118.891 40.5688V36.3601C118.891 35.3274 117.997 34.4116 116.904 34.4116H115.016C113.923 34.4116 113.029 35.3273 113.029 36.3601V46.1026V46.1024ZM116.904 36.3599V40.5686H115.016V36.3599H116.904ZM126.243 34.4114C125.15 34.4114 124.256 35.3271 124.256 36.3599V44.1344C124.256 45.206 125.17 46.1024 126.243 46.1024H128.13V48.0509H124.256V49.9994H128.13C129.223 49.9994 130.117 49.0837 130.117 48.0509V34.4116H126.243V34.4114ZM126.243 44.1344V36.3599H128.13V44.1344H126.243ZM131.707 46.1024C131.707 47.1545 132.601 48.0509 133.694 48.0509H135.582C136.675 48.0509 137.569 47.1547 137.569 46.1024V44.1539H135.582V46.1024H133.694V42.0885H135.582C136.655 42.0885 137.569 41.387 137.569 40.5688V36.3601C137.569 35.3274 136.675 34.4116 135.582 34.4116H133.694C132.601 34.4116 131.707 35.3273 131.707 36.3601V46.1026V46.1024ZM135.582 36.3599V40.5686H133.694V36.3599H135.582ZM141.145 48.0508V42.7509H143.033C144.106 42.7509 145.02 42.0688 145.02 41.231V36.3599C145.02 35.2883 144.106 34.4114 143.033 34.4114H139.158V48.0508H141.145ZM143.033 36.3599V41.231H141.145V36.3599H143.033ZM146.411 46.1024C146.411 47.1545 147.305 48.0509 148.398 48.0509H150.286C151.378 48.0509 152.273 47.1547 152.273 46.1024V44.1539H150.286V46.1024H148.398V42.0885H150.286C151.359 42.0885 152.273 41.387 152.273 40.5688V36.3601C152.273 35.3274 151.379 34.4116 150.286 34.4116H148.398C147.305 34.4116 146.411 35.3273 146.411 36.3601V46.1026V46.1024ZM150.286 36.3599V40.5686H148.398V36.3599H150.286ZM157.737 48.0508C158.81 48.0508 159.724 47.1741 159.724 46.1023V42.9458C159.724 42.1663 159.227 41.4648 158.512 41.1531C159.227 40.8608 159.724 40.1398 159.724 39.3603V36.3598C159.724 35.3271 158.83 34.4113 157.737 34.4113H153.862V48.0506H157.737V48.0508ZM157.737 41.9131V46.1024H155.849V41.9131H157.737ZM157.737 36.3599V40.3933H155.849V36.3599H157.737ZM165.188 48.0508C166.261 48.0508 167.175 47.1741 167.175 46.1023V41.231C167.175 40.4127 166.281 39.7113 165.188 39.7113H163.3V34.4114H161.313V48.0508H165.188ZM165.188 41.231V46.1023H163.3V41.231H165.188ZM168.566 46.1023C168.566 47.1543 169.46 48.0508 170.553 48.0508H172.441C173.534 48.0508 174.428 47.1545 174.428 46.1023V44.1538H172.441V46.1023H170.553V42.0883H172.441C173.514 42.0883 174.428 41.3868 174.428 40.5686V36.3599C174.428 35.3273 173.534 34.4114 172.441 34.4114H170.553C169.46 34.4114 168.566 35.3271 168.566 36.3599V46.1024V46.1023ZM172.441 36.3598V40.5685H170.553V36.3598H172.441ZM179.892 48.0506C180.965 48.0506 181.879 47.1739 181.879 46.1021V42.9456C181.879 42.1662 181.382 41.4646 180.667 41.1529C181.382 40.8606 181.879 40.1397 181.879 39.3602V36.3596C181.879 35.327 180.985 34.4111 179.892 34.4111H176.017V48.0505H179.892V48.0506ZM179.892 41.913V46.1023H178.004V41.913H179.892ZM179.892 36.3598V40.3931H178.004V36.3598H179.892Z" fill="white"/>
<path fill-rule="evenodd" clip-rule="evenodd" d="M62.88 29.3525H181.12C181.537 29.3525 181.878 29.6873 181.878 30.0962V30.0968C181.878 30.5057 181.537 30.8405 181.12 30.8405H62.88C62.4629 30.8405 62.1216 30.5057 62.1216 30.0968V30.0962C62.1216 29.6873 62.4629 29.3525 62.88 29.3525Z" fill="white"/>
<path d="M62 4.94159H72.2589V25.6665H68.9375V8.19863H65.3218V25.6665H62.0002V4.94159H62ZM73.8559 4.94159H80.7051C81.6653 4.94159 82.4345 5.225 83.0127 5.79679C83.5907 6.36361 83.8799 7.11796 83.8799 8.06437V14.5306C83.8799 15.4723 83.5908 16.2313 83.0127 16.7983C82.4346 17.3699 81.6653 17.6535 80.7051 17.6535H77.1777V25.6666H73.8561V4.94174L73.8559 4.94159ZM77.1775 8.19863V14.396H79.6223C79.8818 14.396 80.1073 14.3096 80.2886 14.1319C80.4698 13.9541 80.5579 13.7378 80.5579 13.4832V9.11162C80.5579 8.85695 80.4698 8.64082 80.2886 8.46292C80.1073 8.28516 79.882 8.19877 79.6223 8.19877H77.1775V8.19863ZM85.2218 8.40046C85.2218 7.31001 85.555 6.43556 86.2262 5.78234C86.8925 5.12416 87.7841 4.79741 88.8914 4.79741H91.8994C93.0066 4.79741 93.8984 5.12416 94.5647 5.78234C95.2359 6.43571 95.569 7.31001 95.569 8.40046V22.1787C95.569 23.2692 95.2359 24.1436 94.5647 24.7968C93.8984 25.455 93.0068 25.7818 91.8994 25.7818H88.8914C87.7843 25.7818 86.8925 25.455 86.2262 24.7968C85.555 24.1435 85.2218 23.2692 85.2218 22.1787V8.40046ZM89.4743 22.5246H91.3164C91.5761 22.5246 91.7966 22.4382 91.978 22.2605C92.1592 22.0827 92.2473 21.8664 92.2473 21.6119V9.08753C92.2473 8.75114 92.1592 8.49663 91.978 8.31888C91.7966 8.14113 91.5761 8.05474 91.3164 8.05474H89.4743C89.2148 8.05474 88.9942 8.14113 88.8129 8.31888C88.6317 8.49663 88.5436 8.75114 88.5436 9.08753V21.6119C88.5436 21.8664 88.6317 22.0827 88.8129 22.2605C88.9942 22.4382 89.2148 22.5246 89.4743 22.5246ZM97.0437 18.1625V8.03547C97.0437 7.08906 97.3327 6.33486 97.9156 5.76307C98.4938 5.19625 99.2631 4.91269 100.228 4.91269H102.727V4H106.048V4.91269H108.557C109.522 4.91269 110.296 5.1961 110.879 5.76307C111.462 6.33471 111.751 7.08906 111.751 8.03547V18.1625C111.751 19.1089 111.462 19.8631 110.879 20.4349C110.296 21.0017 109.522 21.2853 108.557 21.2853H106.048V25.6666H102.727V21.2853H100.228C99.2631 21.2853 98.494 21.0019 97.9156 20.4349C97.3328 19.8633 97.0437 19.1089 97.0437 18.1625ZM106.048 8.17002V18.0281H107.376C107.635 18.0281 107.851 17.9416 108.023 17.7638C108.194 17.5861 108.282 17.3699 108.282 17.1153V9.08287C108.282 8.82836 108.194 8.61207 108.023 8.43432C107.851 8.25657 107.635 8.17018 107.376 8.17018H106.048V8.17002ZM100.522 9.08272V17.1151C100.522 17.3698 100.61 17.5859 100.786 17.7637C100.968 17.9414 101.183 18.028 101.443 18.028H102.727V8.16988H101.443C101.183 8.16988 100.968 8.25627 100.786 8.43402C100.61 8.61177 100.522 8.82806 100.522 9.08257V9.08272ZM113.22 22.5439V8.06422C113.22 7.11781 113.509 6.36361 114.088 5.79182C114.666 5.225 115.435 4.94144 116.395 4.94144H120.07C121.03 4.94144 121.799 5.22485 122.377 5.79182C122.955 6.36346 123.244 7.11781 123.244 8.06422V12.0276L119.923 10.9418V9.11162C119.923 8.85695 119.835 8.64082 119.653 8.46292C119.472 8.28516 119.247 8.19877 118.987 8.19877H117.478C117.218 8.19877 116.993 8.28516 116.812 8.46292C116.63 8.64082 116.542 8.85695 116.542 9.11162V21.4966C116.542 21.7511 116.63 21.9674 116.812 22.1452C116.993 22.3229 117.218 22.4093 117.478 22.4093H118.987C119.247 22.4093 119.472 22.3229 119.653 22.1452C119.835 21.9674 119.923 21.7511 119.923 21.4918L119.913 19.6614L123.244 20.7424V22.544C123.244 23.4904 122.955 24.2446 122.377 24.8164C121.799 25.3832 121.03 25.6668 120.07 25.6668H116.395C115.435 25.6668 114.666 25.3834 114.088 24.8164C113.51 24.2448 113.22 23.4904 113.22 22.544V22.5439ZM124.807 4.94159H135.066V25.6665H131.744V8.19863H128.129V25.6665H124.807V4.94159H124.807ZM136.663 25.6665V4.91269H139.994L139.872 16.851L143.032 6.73838C143.213 6.17638 143.531 5.73417 143.997 5.40757C144.462 5.07599 144.991 4.91269 145.579 4.91269H147.073V25.6665H143.742L143.865 13.7282L140.705 23.8408C140.523 24.4028 140.2 24.845 139.735 25.1716C139.269 25.5032 138.745 25.6665 138.157 25.6665H136.663ZM147.627 25.6665L148.729 22.4093H148.925C149.185 22.4093 149.406 22.3229 149.587 22.1452C149.768 21.9674 149.856 21.7511 149.856 21.4966V8.03547C149.856 7.09388 150.145 6.33487 150.723 5.76789C151.301 5.19626 152.071 4.91269 153.031 4.91269H159.615V25.6665H156.294V8.16988H154.109C153.849 8.16988 153.629 8.25627 153.447 8.43402C153.266 8.61177 153.178 8.82806 153.178 9.08257V22.7839C153.178 23.6488 152.909 24.3453 152.37 24.8738C151.836 25.4023 151.125 25.6665 150.248 25.6665H147.627H147.627ZM161.203 14.1462V4.94159H170.756L170.021 8.19863H164.524V12.4743C164.524 12.7962 164.686 12.9547 165.014 12.9547H166.587C167.846 12.9547 168.855 13.3247 169.615 14.0693C170.374 14.8138 170.756 15.7988 170.756 17.0334V22.5485C170.756 23.4901 170.462 24.2491 169.879 24.8161C169.296 25.3829 168.522 25.6665 167.552 25.6665H164.407C163.437 25.6665 162.662 25.3831 162.079 24.8161C161.496 24.2445 161.202 23.4901 161.202 22.5437V19.1088L164.524 20.209V21.4531C164.524 21.7413 164.612 21.9721 164.793 22.145C164.97 22.3228 165.21 22.4092 165.504 22.4092H166.454C166.748 22.4092 166.988 22.3228 167.165 22.145C167.346 21.9721 167.434 21.7415 167.434 21.4531V17.7444C167.434 17.2303 167.277 16.8267 166.969 16.5241C166.655 16.2215 166.239 16.0677 165.715 16.0677H163.167C162.574 16.0677 162.104 15.89 161.741 15.5393C161.384 15.1886 161.202 14.7225 161.202 14.146L161.203 14.1462ZM172.446 17.9896C172.446 17.0432 172.735 16.2313 173.309 15.5539C173.882 14.8716 174.641 14.444 175.592 14.2711L177.723 13.8867C178.017 13.8387 178.252 13.7041 178.423 13.488C178.595 13.2719 178.678 13.022 178.678 12.7338V9.15963C178.678 8.8714 178.59 8.64082 178.409 8.46292C178.232 8.28516 177.997 8.19877 177.703 8.19877H176.772C176.483 8.19877 176.243 8.28516 176.067 8.46292C175.886 8.636 175.797 8.86644 175.797 9.15481V10.3991L172.446 11.4752V8.06437C172.446 7.11796 172.74 6.36376 173.323 5.79197C173.906 5.22515 174.681 4.94159 175.651 4.94159H178.796C179.766 4.94159 180.54 5.225 181.123 5.79197C181.706 6.36361 182 7.11796 182 8.05955V13.219C182 14.1654 181.711 14.9726 181.138 15.6452C180.565 16.3131 179.805 16.7405 178.855 16.9134L176.724 17.3218C176.43 17.3842 176.199 17.5188 176.028 17.7205C175.856 17.9175 175.768 18.1624 175.768 18.4506V22.4092H182V25.6663H172.447V17.9893L172.446 17.9896Z" fill="white"/>
<g clip-path="url(#clip1_44_29503)">
<path fill-rule="evenodd" clip-rule="evenodd" d="M27 0C41.9117 0 54 12.0883 54 27C54 41.9117 41.9117 54 27 54C12.0883 54 0 41.9117 0 27C0 12.0883 12.0883 0 27 0Z" fill="white"/>
<mask id="mask0_44_29503" style="mask-type:luminance" maskUnits="userSpaceOnUse" x="0" y="0" width="54" height="54">
<path d="M27 0C41.9117 0 54 12.0883 54 27C54 41.9117 41.9117 54 27 54C12.0883 54 0 41.9117 0 27C0 12.0883 12.0883 0 27 0Z" fill="white"/>
</mask>
<g mask="url(#mask0_44_29503)">
<path fill-rule="evenodd" clip-rule="evenodd" d="M33.1104 34.3204C32.6168 34.2694 32.7393 34.1949 32.5161 33.8854C32.0882 34.3132 32.3249 35.9687 32.9254 36.2495C33.0362 35.9889 32.9606 35.5777 32.9691 35.2665C32.9795 34.8877 33.0608 34.6634 33.1104 34.3204V34.3204ZM30.6743 41.3024C31.1911 41.1409 31.734 39.3409 31.7592 39.0559C31.8045 38.5453 31.7066 38.0418 31.9495 37.6166C32.1329 37.2954 32.5017 37.1554 32.6435 36.6484C32.5765 36.4411 32.4067 36.2018 32.3068 35.9393C32.2063 35.675 32.1351 35.4379 32.0713 35.1554C31.8796 34.3052 32.1294 34.0335 32.3631 33.5787C32.2552 33.4683 31.7335 33.186 31.3729 33.4055C30.7455 33.7874 30.7583 33.4907 30.5974 33.9161C30.4339 34.3483 30.5848 38.1615 30.6008 38.8981C30.61 39.3169 30.6624 39.7002 30.6612 40.1279C30.6602 40.5086 30.5449 40.9512 30.6743 41.3024L30.6743 41.3024ZM34.4564 32.6542C34.5733 31.9592 34.5976 32.3895 34.7976 32.0648C34.3165 32.0092 32.0519 32.1939 31.398 32.2428C31.4875 32.6029 31.8849 32.8403 32.2029 33.0217C32.7082 33.3099 32.7768 33.2207 33.1131 32.8114C33.4616 32.8377 33.3588 33.0035 33.8298 32.8488C34.0229 32.7855 34.2385 32.7219 34.4564 32.6542H34.4564ZM32.7719 25.5245C32.5937 25.8032 32.4835 26.9174 32.4062 27.3251C32.2847 27.9661 32.3007 28.7169 32.3425 29.3723C32.3858 30.0522 32.634 30.4823 33.1658 30.6815C33.6723 30.8713 34.3135 31.1196 34.8477 30.8462C35.1381 30.6976 35.1067 30.4102 35.142 30.0565C35.1754 29.7209 35.2444 29.4327 35.2505 29.0765C35.2583 28.6205 35.2377 28.5446 35.3792 28.1559C35.6566 27.394 34.8745 27.3079 34.5944 26.8963C34.5063 26.7671 34.4927 26.6732 34.3835 26.5443C34.2672 26.4069 34.2199 26.4135 34.1039 26.3123C33.7597 26.0123 33.3151 25.575 32.7719 25.5245V25.5245ZM30.6574 19.4531C30.6321 18.9524 30.2295 18.2161 30.2459 17.7678C30.2621 17.3261 30.8868 17.6417 30.9767 16.4369C31.0624 15.2906 29.2625 8.42358 29.5009 7.3585C29.6338 6.76542 30.466 6.70265 30.7439 7.11824C31.264 7.89567 32.7851 16.0973 33.0289 16.439C33.156 16.6171 33.5437 16.5769 33.7458 16.7456C33.99 16.9493 33.9378 17.249 34.3601 16.9548C34.5592 16.8161 34.7326 16.6748 34.9989 16.5701C35.7159 16.2876 36.2398 16.8046 36.1705 17.1218C35.6498 17.2416 35.7188 16.8478 35.3471 16.9078C35.1822 16.9344 34.7378 17.1922 34.5687 17.2617C34.54 17.5279 34.6544 17.9183 34.7975 18.0979C35.0536 18.112 35.1958 17.938 35.4411 17.9181C35.6212 17.9034 35.4503 17.9085 35.5733 17.9341L35.6597 17.9748C35.8672 18.2851 35.2721 18.3843 35.2032 18.4093C34.4078 18.6973 35.5737 20.489 35.6315 20.9479C35.6949 21.4505 35.3587 21.6684 35.1557 21.9933C35.0023 22.2389 35.0149 22.2048 34.7009 22.3089C34.4622 22.3879 34.3004 22.4094 34.2476 22.6546C34.4495 22.7569 34.564 22.7002 34.6395 22.9555C34.7756 23.4152 34.6973 23.0853 34.9544 23.3648C35.1106 23.5345 35.057 23.6347 35.3139 23.7192C35.6251 23.8216 35.5621 23.7458 35.8126 23.9375C35.9812 24.0665 36.4704 24.4047 36.7147 24.4673C36.9117 24.5177 37.127 24.5151 37.3146 24.5871C37.5537 24.6788 37.5811 24.7894 37.888 24.7233C38.018 24.5856 38.1252 24.3834 38.0586 24.1503C37.978 23.8679 37.8238 23.944 37.6205 23.7672C37.3297 23.5142 37.5412 22.7934 37.5115 22.3796C37.3243 22.2055 37.1019 22.2428 37.2385 21.8854C37.3555 21.5794 37.4093 21.4883 37.2499 21.1685C37.0121 20.6919 37.114 20.5907 37.4491 20.2485C38.1449 19.538 38.5236 18.6701 39.9878 18.7808C41.621 18.9043 42.3925 20.5821 42.1101 21.9961C42.0155 22.4701 41.5876 22.6796 41.2178 22.8824C41.369 23.145 41.5426 23.1693 41.5244 23.6644C41.242 23.7694 40.9108 23.7135 40.5893 23.8409C40.6763 23.9356 40.8382 23.9778 40.989 24.0317C42.1815 24.4577 42.3059 25.3288 42.4027 26.5589C42.47 27.4135 42.335 27.6892 42.0055 28.3338C41.6004 29.1265 41.6912 29.2693 41.4416 29.9686C41.3366 30.2624 41.1808 30.441 41.0216 30.6762C40.8284 30.9616 40.8316 31.2072 40.6104 31.3903C40.331 31.6217 40.3941 31.8168 40.4336 32.2549C40.4634 32.5856 40.4934 32.9051 40.5211 33.2277C40.5809 33.9273 40.6681 34.6152 40.4221 35.2444C39.715 37.0528 39.1709 36.4918 38.1465 37.419C37.7976 37.7348 37.2009 37.9835 36.7721 38.2443C36.0258 38.6981 36.1636 38.8528 36.1177 39.8531C36.0888 40.4838 35.8518 41.0228 35.6556 41.5787C35.4269 42.2265 35.2855 42.6102 34.9618 43.1361C34.6742 43.6032 34.4106 44.0344 34.1962 44.5712C34.0888 44.8399 34.006 45.1129 33.9249 45.4242C33.8112 45.8605 33.7837 45.8974 33.5159 46.1411C33.3697 46.2743 33.1074 46.5874 32.903 46.6597C32.5539 46.7833 32.3574 46.5487 32.0557 46.4644C31.6273 46.7046 31.4197 46.8737 31.2135 47.3692C30.8292 48.2931 30.8923 49.5126 30.8637 50.513C30.8554 50.8045 30.8593 51.0925 30.8668 51.3838C30.8904 52.3009 30.5658 52.4931 31.0532 53.6127C31.324 54.2347 31.3833 54.1751 31.9617 54.4451C32.3513 54.6268 32.384 55.4704 32.1589 55.784C32.0717 55.9053 31.8356 56.0689 31.6726 56.1662C31.4683 56.2882 31.3469 56.5404 31.2372 56.5629L24.64 56.5591C24.6394 56.279 24.6873 55.8657 24.5341 55.6803C24.3396 55.4448 24.121 55.5929 23.9799 55.2639C23.7566 54.7435 23.9825 54.0224 24.22 53.6759C24.5404 53.2087 24.6744 52.9864 24.7867 52.2984C24.8785 51.7352 24.9383 51.1741 24.984 50.5953C25.0391 49.8976 24.9369 49.3701 24.955 48.7215C24.971 48.1505 25.0398 47.5043 25.0788 46.9275C25.1552 45.7949 25.4237 44.5448 25.3972 43.4015C25.3253 40.3075 24.6852 41.4988 24.0976 40.8198C23.9364 40.6335 23.905 40.3704 24.0317 40.1368C24.1483 39.9215 24.3456 39.8762 24.6245 39.7568C25.0705 39.5657 25.0827 38.8044 25.0238 38.318C24.9212 37.4685 25.1663 37.3219 25.2151 36.5998C25.3222 35.011 24.9923 35.0828 24.8362 34.514C24.6862 33.9685 24.8766 34.018 24.2963 33.6135C24.1042 33.4797 23.9375 33.3106 23.8122 33.1236C23.6263 32.846 23.7701 32.6727 23.8736 32.4524C24.1534 32.4195 24.3401 32.4956 24.5805 32.3452C25.0977 32.0218 24.8298 31.6135 24.8218 31.1246C24.8179 30.8878 24.8675 30.6479 24.8838 30.409C24.9803 28.9788 24.9871 27.3344 24.6431 25.9495C24.5932 25.7486 24.5303 25.5117 24.4469 25.3285C24.3674 25.1534 23.8996 24.6523 23.7204 24.4693C23.5762 24.322 23.4498 24.2609 23.305 24.1164C22.6628 23.4759 22.4323 22.0305 23.5909 22.553C24.0099 22.742 24.2614 23.0878 24.5634 22.5072C24.6518 22.3373 24.7199 22.1574 24.7718 21.9697L29.2619 20.7156C29.3313 21.6967 29.5875 23.0842 29.7328 23.3673C30.0007 23.8891 30.4767 23.4801 30.5659 24.1708C30.6839 25.0847 30.443 24.8646 30.0001 25.1782C29.6504 25.4257 29.7591 26.0249 29.7776 26.5417C29.8184 27.6823 29.681 30.0271 30.468 30.7022C30.7814 30.5982 30.7664 30.3707 31.2892 30.7954C31.3269 31.2325 31.1475 31.3726 31.1894 31.737C31.604 31.9385 32.2633 31.7764 32.7198 31.7396C33.1407 31.7056 34.0871 31.8019 34.3823 31.6348C34.3265 31.4334 34.2691 31.4256 34.0481 31.3766C32.8657 31.1147 32.4605 31.0989 32.0258 29.7209C31.5401 28.1811 32.6552 26.9532 31.9635 23.9985C31.8916 23.6914 31.7736 23.4753 31.7117 23.1781C31.6418 22.8429 31.6254 22.677 31.5071 22.3606C31.2805 21.7543 31.2356 22.057 31.0129 21.781C30.9184 21.6639 30.7574 21.1965 30.6982 21.0207C30.6108 20.7618 30.5187 20.4461 30.4685 20.1763C30.374 19.668 30.396 19.7022 30.6575 19.4531L30.6574 19.4531Z" fill="#0A0A29"/>
<path fill-rule="evenodd" clip-rule="evenodd" d="M15.763 14.7321C15.2712 14.4523 15.4408 14.3527 14.7445 14.477C14.514 14.5182 14.2766 14.5166 14.0558 14.4729C13.728 14.4081 13.7071 14.1838 13.6245 13.9548C13.7991 13.7338 13.985 13.6555 14.0486 13.3793C14.1857 12.7849 13.7075 12.6855 13.3561 12.3456C13.3054 12.2965 11.6768 11.0368 11.6309 10.9823C12.4606 9.81785 13.9561 7.7166 14.928 6.75229C15.2993 6.32498 16.7784 7.56174 17.6278 8.41113C18.214 9.14812 18.8321 9.71738 19.5012 10.3808C20.3369 11.0908 21.5028 11.9448 21.7447 11.8285C21.9517 11.729 22.1025 11.524 22.4722 11.5507C22.7179 11.5685 22.9262 11.7323 23.0017 11.9871C23.0715 12.2218 22.9641 12.3933 22.8513 12.675C22.671 13.1256 23.2307 13.757 23.6162 14.0594C23.7948 14.1993 25.2884 15.8589 25.3865 15.9733C24.2005 17.3066 22.972 18.3905 21.5642 20.0108C19.9276 18.4554 17.8465 15.9179 15.7629 14.7321H15.763Z" fill="#0A0A29"/>
</g>
</g>
</g>
<defs>
<clipPath id="clip0_44_29503">
<rect width="182" height="54" fill="white"/>
</clipPath>
<clipPath id="clip1_44_29503">
<rect width="54" height="54" fill="white"/>
</clipPath>
</defs>
</svg>
