<svg width="26" height="23" viewBox="0 0 26 23" fill="none" xmlns="http://www.w3.org/2000/svg">
<path d="M24.5938 7.76313C24.3474 7.48392 24.0444 7.26033 23.7049 7.1072C23.3655 6.95408 22.9974 6.87493 22.625 6.875H16.5V5.125C16.5 3.96468 16.0391 2.85188 15.2186 2.03141C14.3981 1.21094 13.2853 0.75 12.125 0.75C11.9624 0.749884 11.8031 0.795053 11.6647 0.880442C11.5264 0.965832 11.4146 1.08807 11.3419 1.23344L7.20969 9.5H2.5C2.03587 9.5 1.59075 9.68437 1.26256 10.0126C0.934374 10.3408 0.75 10.7859 0.75 11.25V20.875C0.75 21.3391 0.934374 21.7842 1.26256 22.1124C1.59075 22.4406 2.03587 22.625 2.5 22.625H21.3125C21.952 22.6252 22.5696 22.392 23.0493 21.969C23.5291 21.5461 23.8379 20.9626 23.9178 20.3281L25.2303 9.82812C25.2768 9.45846 25.2441 9.08313 25.1344 8.72709C25.0246 8.37104 24.8403 8.04244 24.5938 7.76313ZM2.5 11.25H6.875V20.875H2.5V11.25Z" fill="#44CC00"/>
</svg>
