<svg width="182" height="54" viewBox="0 0 182 54" fill="none" xmlns="http://www.w3.org/2000/svg">
<g clip-path="url(#clip0_44_29271)">
<path d="M65.9964 34.4121V44.135H64.1086V34.4121H62.1216V44.135C62.1216 45.2066 63.0356 46.1031 64.1086 46.1031H65.9964V48.0516H62.1216V50.0001H65.9964C67.0892 50.0001 67.9834 49.0844 67.9834 48.0516V34.4122H65.9964V34.4121ZM71.5599 34.4121C70.4671 34.4121 69.5729 35.3278 69.5729 36.3606V44.135C69.5729 45.2066 70.4869 46.1031 71.5599 46.1031H73.4477V48.0516H69.5729V50.0001H73.4477C74.5405 50.0001 75.4347 49.0844 75.4347 48.0516V34.4122H71.5599V34.4121ZM71.5599 44.135V36.3606H73.4477V44.135H71.5599ZM82.886 36.3606C82.886 35.3279 81.992 34.4121 80.899 34.4121H79.0113C77.9184 34.4121 77.0242 35.3278 77.0242 36.3606V38.3091H79.0113V36.3606H80.899V40.3939H79.0113C77.9384 40.3939 77.0242 41.076 77.0242 41.9138V46.1031C77.0242 47.1551 77.9183 48.0516 79.0113 48.0516H82.886V36.3607V36.3606ZM79.0113 46.1031V41.9138H80.899V46.1031H79.0113ZM83.8796 48.0516H85.6878L86.7806 40.2382L87.8735 48.0516H89.6815L87.7741 34.4122H85.7871L83.8796 48.0516ZM90.675 46.1031C90.675 47.1551 91.5691 48.0516 92.6621 48.0516H94.5498C95.6427 48.0516 96.5369 47.1553 96.5369 46.1031V44.1546H94.5498V46.1031H92.6621V42.0891H94.5498C95.6227 42.0891 96.5369 41.3876 96.5369 40.5694V36.3607C96.5369 35.3281 95.6428 34.4122 94.5498 34.4122H92.6621C91.5693 34.4122 90.675 35.3279 90.675 36.3607V46.1032V46.1031ZM94.5498 36.3606V40.5693H92.6621V36.3606H94.5498ZM100.113 48.0514V41.9138H102.001V48.0514H103.988V34.4121H102.001V40.3938H100.113V34.4121H98.1264V48.0514H100.113ZM111.44 48.0514V34.4121H109.452L107.565 42.0112V34.4121H105.578V48.0514H107.565L109.452 40.4523V48.0514H111.44ZM113.029 46.1029C113.029 47.155 113.923 48.0514 115.016 48.0514H116.904C117.997 48.0514 118.891 47.1551 118.891 46.1029V44.1544H116.904V46.1029H115.016V42.089H116.904C117.977 42.089 118.891 41.3875 118.891 40.5693V36.3606C118.891 35.3279 117.997 34.4121 116.904 34.4121H115.016C113.923 34.4121 113.029 35.3278 113.029 36.3606V46.1031V46.1029ZM116.904 36.3604V40.5691H115.016V36.3604H116.904ZM126.243 34.4119C125.15 34.4119 124.256 35.3276 124.256 36.3604V44.1348C124.256 45.2065 125.17 46.1029 126.243 46.1029H128.13V48.0514H124.256V49.9999H128.13C129.223 49.9999 130.117 49.0842 130.117 48.0514V34.4121H126.243V34.4119ZM126.243 44.1348V36.3604H128.13V44.1348H126.243ZM131.707 46.1029C131.707 47.155 132.601 48.0514 133.694 48.0514H135.582C136.675 48.0514 137.569 47.1551 137.569 46.1029V44.1544H135.582V46.1029H133.694V42.089H135.582C136.655 42.089 137.569 41.3875 137.569 40.5693V36.3606C137.569 35.3279 136.675 34.4121 135.582 34.4121H133.694C132.601 34.4121 131.707 35.3278 131.707 36.3606V46.1031V46.1029ZM135.582 36.3604V40.5691H133.694V36.3604H135.582ZM141.145 48.0513V42.7514H143.033C144.106 42.7514 145.02 42.0693 145.02 41.2315V36.3604C145.02 35.2888 144.106 34.4119 143.033 34.4119H139.158V48.0513H141.145ZM143.033 36.3604V41.2315H141.145V36.3604H143.033ZM146.411 46.1029C146.411 47.155 147.305 48.0514 148.398 48.0514H150.286C151.378 48.0514 152.273 47.1551 152.273 46.1029V44.1544H150.286V46.1029H148.398V42.089H150.286C151.359 42.089 152.273 41.3875 152.273 40.5693V36.3606C152.273 35.3279 151.379 34.4121 150.286 34.4121H148.398C147.305 34.4121 146.411 35.3278 146.411 36.3606V46.1031V46.1029ZM150.286 36.3604V40.5691H148.398V36.3604H150.286ZM157.737 48.0513C158.81 48.0513 159.724 47.1745 159.724 46.1028V42.9463C159.724 42.1668 159.227 41.4653 158.512 41.1535C159.227 40.8613 159.724 40.1403 159.724 39.3608V36.3603C159.724 35.3276 158.83 34.4118 157.737 34.4118H153.862V48.0511H157.737V48.0513ZM157.737 41.9136V46.1029H155.849V41.9136H157.737ZM157.737 36.3604V40.3938H155.849V36.3604H157.737ZM165.188 48.0513C166.261 48.0513 167.175 47.1745 167.175 46.1028V41.2315C167.175 40.4132 166.281 39.7118 165.188 39.7118H163.3V34.4119H161.313V48.0513H165.188ZM165.188 41.2315V46.1028H163.3V41.2315H165.188ZM168.566 46.1028C168.566 47.1548 169.46 48.0513 170.553 48.0513H172.441C173.534 48.0513 174.428 47.155 174.428 46.1028V44.1543H172.441V46.1028H170.553V42.0888H172.441C173.514 42.0888 174.428 41.3873 174.428 40.5691V36.3604C174.428 35.3278 173.534 34.4119 172.441 34.4119H170.553C169.46 34.4119 168.566 35.3276 168.566 36.3604V46.1029V46.1028ZM172.441 36.3603V40.569H170.553V36.3603H172.441ZM179.892 48.0511C180.965 48.0511 181.879 47.1744 181.879 46.1026V42.9461C181.879 42.1666 181.382 41.4651 180.667 41.1534C181.382 40.8611 181.879 40.1402 181.879 39.3607V36.3601C181.879 35.3275 180.985 34.4116 179.892 34.4116H176.017V48.051H179.892V48.0511ZM179.892 41.9135V46.1028H178.004V41.9135H179.892ZM179.892 36.3603V40.3936H178.004V36.3603H179.892Z" fill="#0066CC"/>
<path fill-rule="evenodd" clip-rule="evenodd" d="M62.88 29.3528H181.12C181.537 29.3528 181.878 29.6875 181.878 30.0965V30.0971C181.878 30.506 181.537 30.8407 181.12 30.8407H62.88C62.4629 30.8407 62.1216 30.506 62.1216 30.0971V30.0965C62.1216 29.6875 62.4629 29.3528 62.88 29.3528Z" fill="#0066CC"/>
<path d="M62 4.94159H72.2589V25.6665H68.9375V8.19863H65.3218V25.6665H62.0002V4.94159H62ZM73.8559 4.94159H80.7051C81.6653 4.94159 82.4345 5.225 83.0127 5.79679C83.5907 6.36361 83.8799 7.11796 83.8799 8.06437V14.5306C83.8799 15.4723 83.5908 16.2313 83.0127 16.7983C82.4346 17.3699 81.6653 17.6535 80.7051 17.6535H77.1777V25.6666H73.8561V4.94174L73.8559 4.94159ZM77.1775 8.19863V14.396H79.6223C79.8818 14.396 80.1073 14.3096 80.2886 14.1319C80.4698 13.9541 80.5579 13.7378 80.5579 13.4832V9.11162C80.5579 8.85695 80.4698 8.64082 80.2886 8.46292C80.1073 8.28516 79.882 8.19877 79.6223 8.19877H77.1775V8.19863ZM85.2218 8.40046C85.2218 7.31001 85.555 6.43556 86.2262 5.78234C86.8925 5.12416 87.7841 4.79741 88.8914 4.79741H91.8994C93.0066 4.79741 93.8984 5.12416 94.5647 5.78234C95.2359 6.43571 95.569 7.31001 95.569 8.40046V22.1787C95.569 23.2692 95.2359 24.1436 94.5647 24.7968C93.8984 25.455 93.0068 25.7818 91.8994 25.7818H88.8914C87.7843 25.7818 86.8925 25.455 86.2262 24.7968C85.555 24.1435 85.2218 23.2692 85.2218 22.1787V8.40046ZM89.4743 22.5246H91.3164C91.5761 22.5246 91.7966 22.4382 91.978 22.2605C92.1592 22.0827 92.2473 21.8664 92.2473 21.6119V9.08753C92.2473 8.75114 92.1592 8.49663 91.978 8.31888C91.7966 8.14113 91.5761 8.05474 91.3164 8.05474H89.4743C89.2148 8.05474 88.9942 8.14113 88.8129 8.31888C88.6317 8.49663 88.5436 8.75114 88.5436 9.08753V21.6119C88.5436 21.8664 88.6317 22.0827 88.8129 22.2605C88.9942 22.4382 89.2148 22.5246 89.4743 22.5246ZM97.0437 18.1625V8.03547C97.0437 7.08906 97.3327 6.33486 97.9156 5.76307C98.4938 5.19625 99.2631 4.91269 100.228 4.91269H102.727V4H106.048V4.91269H108.557C109.522 4.91269 110.296 5.1961 110.879 5.76307C111.462 6.33471 111.751 7.08906 111.751 8.03547V18.1625C111.751 19.1089 111.462 19.8631 110.879 20.4349C110.296 21.0017 109.522 21.2853 108.557 21.2853H106.048V25.6666H102.727V21.2853H100.228C99.2631 21.2853 98.494 21.0019 97.9156 20.4349C97.3328 19.8633 97.0437 19.1089 97.0437 18.1625ZM106.048 8.17002V18.0281H107.376C107.635 18.0281 107.851 17.9416 108.023 17.7638C108.194 17.5861 108.282 17.3699 108.282 17.1153V9.08287C108.282 8.82836 108.194 8.61207 108.023 8.43432C107.851 8.25657 107.635 8.17018 107.376 8.17018H106.048V8.17002ZM100.522 9.08272V17.1151C100.522 17.3698 100.61 17.5859 100.786 17.7637C100.968 17.9414 101.183 18.028 101.443 18.028H102.727V8.16988H101.443C101.183 8.16988 100.968 8.25627 100.786 8.43402C100.61 8.61177 100.522 8.82806 100.522 9.08257V9.08272ZM113.22 22.5439V8.06422C113.22 7.11781 113.509 6.36361 114.088 5.79182C114.666 5.225 115.435 4.94144 116.395 4.94144H120.07C121.03 4.94144 121.799 5.22485 122.377 5.79182C122.955 6.36346 123.244 7.11781 123.244 8.06422V12.0276L119.923 10.9418V9.11162C119.923 8.85695 119.835 8.64082 119.653 8.46292C119.472 8.28516 119.247 8.19877 118.987 8.19877H117.478C117.218 8.19877 116.993 8.28516 116.812 8.46292C116.63 8.64082 116.542 8.85695 116.542 9.11162V21.4966C116.542 21.7511 116.63 21.9674 116.812 22.1452C116.993 22.3229 117.218 22.4093 117.478 22.4093H118.987C119.247 22.4093 119.472 22.3229 119.653 22.1452C119.835 21.9674 119.923 21.7511 119.923 21.4918L119.913 19.6614L123.244 20.7424V22.544C123.244 23.4904 122.955 24.2446 122.377 24.8164C121.799 25.3832 121.03 25.6668 120.07 25.6668H116.395C115.435 25.6668 114.666 25.3834 114.088 24.8164C113.51 24.2448 113.22 23.4904 113.22 22.544V22.5439ZM124.807 4.94159H135.066V25.6665H131.744V8.19863H128.129V25.6665H124.807V4.94159H124.807ZM136.663 25.6665V4.91269H139.994L139.872 16.851L143.032 6.73838C143.213 6.17638 143.531 5.73417 143.997 5.40757C144.462 5.07599 144.991 4.91269 145.579 4.91269H147.073V25.6665H143.742L143.865 13.7282L140.705 23.8408C140.523 24.4028 140.2 24.845 139.735 25.1716C139.269 25.5032 138.745 25.6665 138.157 25.6665H136.663ZM147.627 25.6665L148.729 22.4093H148.925C149.185 22.4093 149.406 22.3229 149.587 22.1452C149.768 21.9674 149.856 21.7511 149.856 21.4966V8.03547C149.856 7.09388 150.145 6.33487 150.723 5.76789C151.301 5.19626 152.071 4.91269 153.031 4.91269H159.615V25.6665H156.294V8.16988H154.109C153.849 8.16988 153.629 8.25627 153.447 8.43402C153.266 8.61177 153.178 8.82806 153.178 9.08257V22.7839C153.178 23.6488 152.909 24.3453 152.37 24.8738C151.836 25.4023 151.125 25.6665 150.248 25.6665H147.627H147.627ZM161.203 14.1462V4.94159H170.756L170.021 8.19863H164.524V12.4743C164.524 12.7962 164.686 12.9547 165.014 12.9547H166.587C167.846 12.9547 168.855 13.3247 169.615 14.0693C170.374 14.8138 170.756 15.7988 170.756 17.0334V22.5485C170.756 23.4901 170.462 24.2491 169.879 24.8161C169.296 25.3829 168.522 25.6665 167.552 25.6665H164.407C163.437 25.6665 162.662 25.3831 162.079 24.8161C161.496 24.2445 161.202 23.4901 161.202 22.5437V19.1088L164.524 20.209V21.4531C164.524 21.7413 164.612 21.9721 164.793 22.145C164.97 22.3228 165.21 22.4092 165.504 22.4092H166.454C166.748 22.4092 166.988 22.3228 167.165 22.145C167.346 21.9721 167.434 21.7415 167.434 21.4531V17.7444C167.434 17.2303 167.277 16.8267 166.969 16.5241C166.655 16.2215 166.239 16.0677 165.715 16.0677H163.167C162.574 16.0677 162.104 15.89 161.741 15.5393C161.384 15.1886 161.202 14.7225 161.202 14.146L161.203 14.1462ZM172.446 17.9896C172.446 17.0432 172.735 16.2313 173.309 15.5539C173.882 14.8716 174.641 14.444 175.592 14.2711L177.723 13.8867C178.017 13.8387 178.252 13.7041 178.423 13.488C178.595 13.2719 178.678 13.022 178.678 12.7338V9.15963C178.678 8.8714 178.59 8.64082 178.409 8.46292C178.232 8.28516 177.997 8.19877 177.703 8.19877H176.772C176.483 8.19877 176.243 8.28516 176.067 8.46292C175.886 8.636 175.797 8.86644 175.797 9.15481V10.3991L172.446 11.4752V8.06437C172.446 7.11796 172.74 6.36376 173.323 5.79197C173.906 5.22515 174.681 4.94159 175.651 4.94159H178.796C179.766 4.94159 180.54 5.225 181.123 5.79197C181.706 6.36361 182 7.11796 182 8.05955V13.219C182 14.1654 181.711 14.9726 181.138 15.6452C180.565 16.3131 179.805 16.7405 178.855 16.9134L176.724 17.3218C176.43 17.3842 176.199 17.5188 176.028 17.7205C175.856 17.9175 175.768 18.1624 175.768 18.4506V22.4092H182V25.6663H172.447V17.9893L172.446 17.9896Z" fill="#0066CC"/>
<g clip-path="url(#clip1_44_29271)">
<path fill-rule="evenodd" clip-rule="evenodd" d="M27 0C41.9117 0 54 12.0883 54 27C54 41.9117 41.9117 54 27 54C12.0883 54 0 41.9117 0 27C0 12.0883 12.0883 0 27 0Z" fill="#0066CC"/>
<mask id="mask0_44_29271" style="mask-type:luminance" maskUnits="userSpaceOnUse" x="0" y="0" width="54" height="54">
<path d="M27 0C41.9117 0 54 12.0883 54 27C54 41.9117 41.9117 54 27 54C12.0883 54 0 41.9117 0 27C0 12.0883 12.0883 0 27 0Z" fill="white"/>
</mask>
<g mask="url(#mask0_44_29271)">
<path fill-rule="evenodd" clip-rule="evenodd" d="M33.1104 34.3211C32.6168 34.2701 32.7393 34.1956 32.5161 33.8861C32.0882 34.314 32.3249 35.9694 32.9254 36.2502C33.0362 35.9897 32.9606 35.5785 32.9691 35.2672C32.9795 34.8884 33.0608 34.6642 33.1104 34.3212V34.3211ZM30.6743 41.3031C31.1911 41.1416 31.734 39.3416 31.7592 39.0566C31.8045 38.546 31.7066 38.0425 31.9495 37.6173C32.1329 37.2962 32.5017 37.1561 32.6435 36.6491C32.5765 36.4419 32.4067 36.2026 32.3068 35.9401C32.2063 35.6758 32.1351 35.4387 32.0713 35.1561C31.8796 34.306 32.1294 34.0343 32.3631 33.5795C32.2552 33.469 31.7335 33.1868 31.3729 33.4062C30.7455 33.7881 30.7583 33.4914 30.5974 33.9169C30.4339 34.349 30.5848 38.1622 30.6008 38.8988C30.61 39.3177 30.6624 39.7009 30.6612 40.1286C30.6602 40.5093 30.5449 40.952 30.6743 41.3031L30.6743 41.3031ZM34.4564 32.6549C34.5733 31.9599 34.5976 32.3902 34.7976 32.0655C34.3165 32.0099 32.0519 32.1946 31.398 32.2436C31.4875 32.6036 31.8849 32.8411 32.2029 33.0224C32.7082 33.3107 32.7768 33.2215 33.1131 32.8121C33.4616 32.8384 33.3588 33.0043 33.8298 32.8496C34.0229 32.7862 34.2385 32.7227 34.4564 32.6549H34.4564ZM32.7719 25.5252C32.5937 25.804 32.4835 26.9181 32.4062 27.3259C32.2847 27.9668 32.3007 28.7176 32.3425 29.373C32.3858 30.053 32.634 30.483 33.1658 30.6822C33.6723 30.8721 34.3135 31.1203 34.8477 30.8469C35.1381 30.6983 35.1067 30.4109 35.142 30.0572C35.1754 29.7217 35.2444 29.4334 35.2505 29.0772C35.2583 28.6212 35.2377 28.5453 35.3792 28.1567C35.6566 27.3947 34.8745 27.3086 34.5944 26.8971C34.5063 26.7678 34.4927 26.674 34.3835 26.545C34.2672 26.4077 34.2199 26.4143 34.1039 26.3131C33.7597 26.013 33.3151 25.5758 32.7719 25.5252V25.5252ZM30.6574 19.4538C30.6321 18.9531 30.2295 18.2169 30.2459 17.7685C30.2621 17.3268 30.8868 17.6425 30.9767 16.4376C31.0624 15.2914 29.2625 8.42431 29.5009 7.35923C29.6338 6.76615 30.466 6.70339 30.7439 7.11897C31.264 7.8964 32.7851 16.098 33.0289 16.4397C33.156 16.6178 33.5437 16.5777 33.7458 16.7463C33.99 16.9501 33.9378 17.2497 34.3601 16.9555C34.5592 16.8168 34.7326 16.6756 34.9989 16.5708C35.7159 16.2883 36.2398 16.8054 36.1705 17.1225C35.6498 17.2424 35.7188 16.8486 35.3471 16.9086C35.1822 16.9351 34.7378 17.1929 34.5687 17.2624C34.54 17.5286 34.6544 17.919 34.7975 18.0987C35.0536 18.1127 35.1958 17.9387 35.4411 17.9188C35.6212 17.9041 35.4503 17.9092 35.5733 17.9349L35.6597 17.9755C35.8672 18.2859 35.2721 18.385 35.2032 18.41C34.4078 18.698 35.5737 20.4897 35.6315 20.9486C35.6949 21.4512 35.3587 21.6691 35.1557 21.994C35.0023 22.2396 35.0149 22.2056 34.7009 22.3097C34.4622 22.3887 34.3004 22.4102 34.2476 22.6554C34.4495 22.7576 34.564 22.7009 34.6395 22.9562C34.7756 23.416 34.6973 23.086 34.9544 23.3655C35.1106 23.5353 35.057 23.6354 35.3139 23.7199C35.6251 23.8223 35.5621 23.7465 35.8126 23.9382C35.9812 24.0672 36.4704 24.4055 36.7147 24.468C36.9117 24.5184 37.127 24.5158 37.3146 24.5878C37.5537 24.6795 37.5811 24.7901 37.888 24.724C38.018 24.5863 38.1252 24.3842 38.0586 24.151C37.978 23.8686 37.8238 23.9448 37.6205 23.768C37.3297 23.5149 37.5412 22.7942 37.5115 22.3804C37.3243 22.2062 37.1019 22.2436 37.2385 21.8862C37.3555 21.5802 37.4093 21.489 37.2499 21.1693C37.0121 20.6927 37.114 20.5914 37.4491 20.2492C38.1449 19.5387 38.5236 18.6708 39.9878 18.7816C41.621 18.9051 42.3925 20.5828 42.1101 21.9968C42.0155 22.4708 41.5876 22.6804 41.2178 22.8832C41.369 23.1457 41.5426 23.1701 41.5244 23.6652C41.242 23.7702 40.9108 23.7143 40.5893 23.8416C40.6763 23.9363 40.8382 23.9786 40.989 24.0324C42.1815 24.4584 42.3059 25.3296 42.4027 26.5597C42.47 27.4142 42.335 27.6899 42.0055 28.3345C41.6004 29.1273 41.6912 29.27 41.4416 29.9693C41.3366 30.2631 41.1808 30.4417 41.0216 30.677C40.8284 30.9623 40.8316 31.208 40.6104 31.3911C40.331 31.6224 40.3941 31.8175 40.4336 32.2557C40.4634 32.5863 40.4934 32.9058 40.5211 33.2284C40.5809 33.928 40.6681 34.616 40.4221 35.2451C39.715 37.0536 39.1709 36.4926 38.1465 37.4197C37.7976 37.7355 37.2009 37.9842 36.7721 38.2451C36.0258 38.6989 36.1636 38.8536 36.1177 39.8539C36.0888 40.4845 35.8518 41.0235 35.6556 41.5794C35.4269 42.2273 35.2855 42.6109 34.9618 43.1368C34.6742 43.604 34.4106 44.0352 34.1962 44.5719C34.0888 44.8407 34.006 45.1136 33.9249 45.4249C33.8112 45.8612 33.7837 45.8981 33.5159 46.1418C33.3697 46.275 33.1074 46.5881 32.903 46.6604C32.5539 46.784 32.3574 46.5495 32.0557 46.4651C31.6273 46.7054 31.4197 46.8744 31.2135 47.3699C30.8292 48.2938 30.8923 49.5133 30.8637 50.5138C30.8554 50.8052 30.8593 51.0932 30.8668 51.3846C30.8904 52.3016 30.5658 52.4938 31.0532 53.6134C31.324 54.2354 31.3833 54.1758 31.9617 54.4458C32.3513 54.6275 32.384 55.4711 32.1589 55.7848C32.0717 55.9061 31.8356 56.0696 31.6726 56.1669C31.4683 56.2889 31.3469 56.5411 31.2372 56.5637L24.64 56.5598C24.6394 56.2797 24.6873 55.8665 24.5341 55.6811C24.3396 55.4455 24.121 55.5937 23.9799 55.2646C23.7566 54.7443 23.9825 54.0232 24.22 53.6766C24.5404 53.2094 24.6744 52.9872 24.7867 52.2991C24.8785 51.7359 24.9383 51.1749 24.984 50.596C25.0391 49.8984 24.9369 49.3708 24.955 48.7222C24.971 48.1512 25.0398 47.505 25.0788 46.9282C25.1552 45.7956 25.4237 44.5455 25.3972 43.4022C25.3253 40.3082 24.6852 41.4995 24.0976 40.8206C23.9364 40.6343 23.905 40.3712 24.0317 40.1376C24.1483 39.9222 24.3456 39.877 24.6245 39.7575C25.0705 39.5664 25.0827 38.8052 25.0238 38.3187C24.9212 37.4692 25.1663 37.3226 25.2151 36.6006C25.3222 35.0117 24.9923 35.0835 24.8362 34.5148C24.6862 33.9692 24.8766 34.0187 24.2963 33.6142C24.1042 33.4804 23.9375 33.3114 23.8122 33.1244C23.6263 32.8467 23.7701 32.6734 23.8736 32.4531C24.1534 32.4202 24.3401 32.4963 24.5805 32.3459C25.0977 32.0226 24.8298 31.6142 24.8218 31.1253C24.8179 30.8886 24.8675 30.6486 24.8838 30.4097C24.9803 28.9796 24.9871 27.3351 24.6431 25.9502C24.5932 25.7494 24.5303 25.5124 24.4469 25.3292C24.3674 25.1541 23.8996 24.653 23.7204 24.4701C23.5762 24.3228 23.4498 24.2617 23.305 24.1172C22.6628 23.4767 22.4323 22.0312 23.5909 22.5538C24.0099 22.7428 24.2614 23.0885 24.5634 22.5079C24.6518 22.3381 24.7199 22.1581 24.7718 21.9704L29.2619 20.7164C29.3313 21.6975 29.5875 23.0849 29.7328 23.368C30.0007 23.8898 30.4767 23.4809 30.5659 24.1716C30.6839 25.0854 30.443 24.8653 30.0001 25.1789C29.6504 25.4264 29.7591 26.0257 29.7776 26.5425C29.8184 27.683 29.681 30.0278 30.468 30.703C30.7814 30.5989 30.7664 30.3715 31.2892 30.7962C31.3269 31.2332 31.1475 31.3733 31.1894 31.7378C31.604 31.9393 32.2633 31.7771 32.7198 31.7403C33.1407 31.7064 34.0871 31.8027 34.3823 31.6355C34.3265 31.4341 34.2691 31.4263 34.0481 31.3773C32.8657 31.1155 32.4605 31.0997 32.0258 29.7217C31.5401 28.1818 32.6552 26.9539 31.9635 23.9992C31.8916 23.6921 31.7736 23.476 31.7117 23.1789C31.6418 22.8436 31.6254 22.6777 31.5071 22.3613C31.2805 21.7551 31.2356 22.0577 31.0129 21.7817C30.9184 21.6646 30.7574 21.1972 30.6982 21.0214C30.6108 20.7625 30.5187 20.4468 30.4685 20.1771C30.374 19.6688 30.396 19.703 30.6575 19.4538L30.6574 19.4538Z" fill="white"/>
<path fill-rule="evenodd" clip-rule="evenodd" d="M15.763 14.7326C15.2712 14.4528 15.4408 14.3532 14.7445 14.4775C14.514 14.5187 14.2766 14.5171 14.0558 14.4734C13.728 14.4086 13.7071 14.1843 13.6245 13.9553C13.7991 13.7342 13.985 13.656 14.0486 13.3797C14.1857 12.7853 13.7075 12.686 13.3561 12.346C13.3054 12.297 11.6768 11.0373 11.6309 10.9828C12.4606 9.81833 13.9561 7.71709 14.928 6.75278C15.2993 6.32547 16.7784 7.56223 17.6278 8.41161C18.214 9.1486 18.8321 9.71787 19.5012 10.3812C20.3369 11.0912 21.5028 11.9453 21.7447 11.8289C21.9517 11.7295 22.1025 11.5245 22.4722 11.5512C22.7179 11.569 22.9262 11.7328 23.0017 11.9875C23.0715 12.2223 22.9641 12.3938 22.8513 12.6755C22.671 13.1261 23.2307 13.7575 23.6162 14.0598C23.7948 14.1998 25.2884 15.8594 25.3865 15.9738C24.2005 17.3071 22.972 18.3909 21.5642 20.0113C19.9276 18.4559 17.8465 15.9184 15.7629 14.7326H15.763Z" fill="white"/>
</g>
</g>
</g>
<defs>
<clipPath id="clip0_44_29271">
<rect width="182" height="54" fill="white"/>
</clipPath>
<clipPath id="clip1_44_29271">
<rect width="54" height="54" fill="white"/>
</clipPath>
</defs>
</svg>
