<svg width="20" height="21" viewBox="0 0 20 21" fill="none" xmlns="http://www.w3.org/2000/svg">
<path d="M17.6049 4.07129H2.02466C1.85249 4.07129 1.68737 4.13968 1.56563 4.26143C1.44388 4.38317 1.37549 4.54829 1.37549 4.72046V15.7565C1.37549 16.1008 1.51228 16.431 1.75577 16.6745C1.99925 16.918 2.3295 17.0548 2.67384 17.0548H16.9557C17.3001 17.0548 17.6303 16.918 17.8738 16.6745C18.1173 16.431 18.2541 16.1008 18.2541 15.7565V4.72046C18.2541 4.54829 18.1857 4.38317 18.0639 4.26143C17.9422 4.13968 17.7771 4.07129 17.6049 4.07129ZM7.43798 10.563L2.67384 14.9296V6.19653L7.43798 10.563ZM8.39876 11.4435L9.37252 12.3402C9.49229 12.4501 9.64895 12.5111 9.81153 12.5111C9.97411 12.5111 10.1308 12.4501 10.2505 12.3402L11.2243 11.4435L15.9308 15.7565H3.69386L8.39876 11.4435ZM12.1916 10.563L16.9557 6.19572V14.9304L12.1916 10.563Z" fill="white"/>
</svg>
