<svg width="21" height="21" viewBox="0 0 21 21" fill="none" xmlns="http://www.w3.org/2000/svg">
<path d="M18.1044 4.07153H2.52418C2.352 4.07153 2.18688 4.13993 2.06514 4.26167C1.9434 4.38342 1.875 4.54854 1.875 4.72071V15.7567C1.875 16.101 2.01179 16.4313 2.25528 16.6748C2.49877 16.9183 2.82901 17.055 3.17335 17.055H17.4552C17.7996 17.055 18.1298 16.9183 18.3733 16.6748C18.6168 16.4313 18.7536 16.101 18.7536 15.7567V4.72071C18.7536 4.54854 18.6852 4.38342 18.5634 4.26167C18.4417 4.13993 18.2766 4.07153 18.1044 4.07153ZM7.93749 10.5633L3.17335 14.9298V6.19677L7.93749 10.5633ZM8.89827 11.4437L9.87204 12.3404C9.9918 12.4504 10.1485 12.5114 10.311 12.5114C10.4736 12.5114 10.6303 12.4504 10.75 12.3404L11.7238 11.4437L16.4303 15.7567H4.19337L8.89827 11.4437ZM12.6911 10.5633L17.4552 6.19596V14.9306L12.6911 10.5633Z" fill="#0066CC"/>
</svg>
