<svg width="20" height="21" viewBox="0 0 20 21" fill="none" xmlns="http://www.w3.org/2000/svg">
<path d="M18.1156 14.178C17.9763 15.2366 17.4564 16.2083 16.6531 16.9116C15.8497 17.6149 14.8177 18.0018 13.75 17.9998C7.54688 17.9998 2.50001 12.953 2.50001 6.74984C2.49809 5.6821 2.88492 4.65017 3.58824 3.84679C4.29155 3.04341 5.26326 2.52352 6.32188 2.38422C6.58958 2.35153 6.86067 2.4063 7.09468 2.54034C7.3287 2.67438 7.51309 2.88052 7.62032 3.12797L9.27032 6.81156V6.82094C9.35242 7.01035 9.38633 7.21715 9.36901 7.42287C9.3517 7.62859 9.2837 7.82681 9.1711 7.99984C9.15704 8.02094 9.14219 8.04047 9.12657 8.06L7.50001 9.98812C8.08516 11.1772 9.32891 12.41 10.5336 12.9967L12.4352 11.3787C12.4538 11.3631 12.4734 11.3484 12.4938 11.335C12.6666 11.2197 12.8655 11.1493 13.0725 11.1302C13.2794 11.1111 13.4878 11.1439 13.6789 11.2256L13.6891 11.2303L17.3695 12.8795C17.6174 12.9864 17.8241 13.1706 17.9585 13.4047C18.093 13.6387 18.1481 13.91 18.1156 14.178Z" fill="white"/>
</svg>
