<svg width="41" height="41" viewBox="0 0 41 41" fill="none" xmlns="http://www.w3.org/2000/svg">
<path d="M0.5 20.5C0.5 13.0231 0.5 9.28461 2.10769 6.5C3.16091 4.67577 4.67577 3.16091 6.5 2.10769C9.28461 0.5 13.0231 0.5 20.5 0.5V0.5C27.9769 0.5 31.7154 0.5 34.5 2.10769C36.3242 3.16091 37.8391 4.67577 38.8923 6.5C40.5 9.28461 40.5 13.0231 40.5 20.5V20.5C40.5 27.9769 40.5 31.7154 38.8923 34.5C37.8391 36.3242 36.3242 37.8391 34.5 38.8923C31.7154 40.5 27.9769 40.5 20.5 40.5V40.5C13.0231 40.5 9.28461 40.5 6.5 38.8923C4.67577 37.8391 3.16091 36.3242 2.10769 34.5C0.5 31.7154 0.5 27.9769 0.5 20.5V20.5Z" fill="#19A2E6"/>
<path d="M27.8764 12.6932L10.1573 19.6291C9.44427 19.9521 9.2031 20.599 9.98497 20.95L14.5307 22.4164L25.5216 15.5213C26.1217 15.0885 26.7361 15.2039 26.2074 15.6801L16.7677 24.356L16.4712 28.0276C16.7458 28.5945 17.2487 28.5972 17.5695 28.3154L20.1811 25.807L24.654 29.2068C25.6929 29.8311 26.2581 29.4283 26.4816 28.284L29.4154 14.1826C29.72 12.7742 29.2006 12.1536 27.8764 12.6932Z" fill="white"/>
</svg>
