<svg width="41" height="41" viewBox="0 0 41 41" fill="none" xmlns="http://www.w3.org/2000/svg">
<path d="M0.5 20.5C0.5 13.0231 0.5 9.28461 2.10769 6.5C3.16091 4.67577 4.67577 3.16091 6.5 2.10769C9.28461 0.5 13.0231 0.5 20.5 0.5V0.5C27.9769 0.5 31.7154 0.5 34.5 2.10769C36.3242 3.16091 37.8391 4.67577 38.8923 6.5C40.5 9.28461 40.5 13.0231 40.5 20.5V20.5C40.5 27.9769 40.5 31.7154 38.8923 34.5C37.8391 36.3242 36.3242 37.8391 34.5 38.8923C31.7154 40.5 27.9769 40.5 20.5 40.5V40.5C13.0231 40.5 9.28461 40.5 6.5 38.8923C4.67577 37.8391 3.16091 36.3242 2.10769 34.5C0.5 31.7154 0.5 27.9769 0.5 20.5V20.5Z" fill="#44CC00"/>
<path d="M10.504 30.5L11.856 25.532C10.9652 24.0048 10.4971 22.268 10.5 20.5C10.5 14.977 14.977 10.5 20.5 10.5C26.023 10.5 30.5 14.977 30.5 20.5C30.5 26.023 26.023 30.5 20.5 30.5C18.7328 30.5028 16.9967 30.0352 15.47 29.145L10.504 30.5ZM16.891 15.808C16.7619 15.816 16.6357 15.85 16.52 15.908C16.4115 15.9694 16.3125 16.0462 16.226 16.136C16.106 16.249 16.038 16.347 15.965 16.442C15.5954 16.923 15.3966 17.5134 15.4 18.12C15.402 18.61 15.53 19.087 15.73 19.533C16.139 20.435 16.812 21.39 17.701 22.275C17.915 22.488 18.124 22.702 18.349 22.901C19.4524 23.8725 20.7673 24.573 22.189 24.947L22.758 25.034C22.943 25.044 23.128 25.03 23.314 25.021C23.6052 25.006 23.8896 24.9271 24.147 24.79C24.278 24.7225 24.4058 24.6491 24.53 24.57C24.53 24.57 24.573 24.542 24.655 24.48C24.79 24.38 24.873 24.309 24.985 24.192C25.068 24.106 25.14 24.005 25.195 23.89C25.273 23.727 25.351 23.416 25.383 23.157C25.407 22.959 25.4 22.851 25.397 22.784C25.393 22.677 25.304 22.566 25.207 22.519L24.625 22.258C24.625 22.258 23.755 21.879 23.224 21.637C23.168 21.6126 23.108 21.5987 23.047 21.596C22.9786 21.589 22.9095 21.5967 22.8443 21.6186C22.7791 21.6405 22.7193 21.6761 22.669 21.723V21.721C22.664 21.721 22.597 21.778 21.874 22.654C21.8325 22.7098 21.7753 22.7519 21.7098 22.775C21.6443 22.7982 21.5733 22.8013 21.506 22.784C21.4408 22.7666 21.377 22.7445 21.315 22.718C21.191 22.666 21.148 22.646 21.063 22.609L21.058 22.607C20.4859 22.3572 19.9562 22.0198 19.488 21.607C19.362 21.497 19.245 21.377 19.125 21.261C18.7316 20.8842 18.3887 20.458 18.105 19.993L18.046 19.898C18.0036 19.8342 17.9694 19.7653 17.944 19.693C17.906 19.546 18.005 19.428 18.005 19.428C18.005 19.428 18.248 19.162 18.361 19.018C18.4551 18.8983 18.5429 18.7738 18.624 18.645C18.742 18.455 18.779 18.26 18.717 18.109C18.437 17.425 18.147 16.744 17.849 16.068C17.79 15.934 17.615 15.838 17.456 15.819C17.402 15.813 17.348 15.807 17.294 15.803C17.1597 15.7963 17.0251 15.7987 16.891 15.808Z" fill="white"/>
</svg>
