<svg width="60" height="60" viewBox="0 0 60 60" fill="none" xmlns="http://www.w3.org/2000/svg">
<path d="M53.0244 5.95734H43.4535V4.99237C43.4535 2.23938 41.2141 0 38.4611 0H16.2023C15.7102 0 15.3115 0.39917 15.3115 0.891266C15.3115 1.38336 15.7102 1.78207 16.2023 1.78207H38.4611C40.2313 1.78207 41.6714 3.2222 41.6714 4.99237V5.95734H31.239C29.0417 5.95734 27.1795 7.4176 26.5707 9.41803H9.53638C7.35742 9.41803 5.58496 11.1909 5.58496 13.3699V47.1684C5.58496 49.3465 7.35742 51.1189 9.53638 51.1189H36.0267C38.2057 51.1189 39.9786 49.3465 39.9786 47.1684V29.6764L40.5993 29.1248H41.6714V48.371C41.6714 48.8631 42.0706 49.2622 42.5627 49.2622C43.0547 49.2622 43.4539 48.8631 43.4539 48.371V29.1243H53.0244C55.7147 29.1243 57.9032 26.9357 57.9032 24.2459V10.8362C57.9028 8.1459 55.7142 5.95734 53.0244 5.95734ZM38.1965 47.1684C38.1965 48.3641 37.2233 49.3369 36.0267 49.3369H9.53638C8.34024 49.3369 7.36703 48.3641 7.36703 47.1684V13.3699C7.36703 12.1738 8.34024 11.2006 9.53638 11.2006H26.3601V24.2459C26.3601 26.6318 28.0818 28.623 30.3477 29.0428V36.2526C30.3477 36.6037 30.5537 36.9218 30.8737 37.0656C30.9908 37.1182 31.1154 37.1439 31.2385 37.1439C31.4527 37.1439 31.6642 37.0665 31.8308 36.9186L38.1965 31.2602V47.1684ZM56.1207 24.2459C56.1207 25.9534 54.7318 27.3422 53.0244 27.3422H40.2601C40.0417 27.3422 39.8312 27.4223 39.6682 27.5674L32.1298 34.2686V28.2335C32.1298 27.7414 31.7306 27.3422 31.2385 27.3422C29.531 27.3422 28.1422 25.9534 28.1422 24.2459V10.8362C28.1422 9.12872 29.531 7.73941 31.2385 7.73941H53.0239C54.7314 7.73941 56.1207 9.12872 56.1207 10.8362V24.2459Z" fill="#0066CC"/>
<path d="M42.5624 51.0448C42.0703 51.0448 41.6711 51.4435 41.6711 51.9356V55.0063C41.6711 56.7773 40.231 58.2179 38.4608 58.2179H7.10175C5.33157 58.2179 3.89145 56.7773 3.89145 55.0063V4.99237C3.89145 3.2222 5.33157 1.78207 7.10175 1.78207H12.6375C13.1296 1.78207 13.5287 1.38336 13.5287 0.891266C13.5287 0.39917 13.1296 0 12.6375 0H7.10175C4.34875 0 2.10938 2.23938 2.10938 4.99237V55.0063C2.10938 57.7597 4.34875 60 7.10175 60H38.4608C41.2138 60 43.4537 57.7597 43.4537 55.0063V51.9356C43.4537 51.4435 43.0545 51.0448 42.5624 51.0448Z" fill="#0066CC"/>
<path d="M25.4546 54.8618C25.4546 53.3878 24.2557 52.1885 22.7817 52.1885C21.3077 52.1885 20.1084 53.3878 20.1084 54.8618C20.1084 56.3358 21.3073 57.5352 22.7817 57.5352C24.2557 57.5352 25.4546 56.3358 25.4546 54.8618ZM21.8905 54.8618C21.8905 54.3706 22.2901 53.971 22.7817 53.971C23.2729 53.971 23.6725 54.3706 23.6725 54.8618C23.6725 55.353 23.2729 55.7531 22.7817 55.7531C22.2901 55.7531 21.8905 55.3535 21.8905 54.8618Z" fill="#0066CC"/>
<path d="M51.4872 21.2832H40.9733C40.4812 21.2832 40.082 21.6824 40.082 22.1745C40.082 22.6666 40.4812 23.0653 40.9733 23.0653H51.4872C51.9793 23.0653 52.378 22.6666 52.378 22.1745C52.378 21.6824 51.9793 21.2832 51.4872 21.2832Z" fill="#0066CC"/>
<path d="M37.409 21.2832H32.7755C32.2834 21.2832 31.8843 21.6824 31.8843 22.1745C31.8843 22.6666 32.2834 23.0653 32.7755 23.0653H37.409C37.9011 23.0653 38.2998 22.6666 38.2998 22.1745C38.2998 21.6824 37.9011 21.2832 37.409 21.2832Z" fill="#0066CC"/>
<path d="M51.4875 17.1846H32.7755C32.2834 17.1846 31.8843 17.5833 31.8843 18.0754C31.8843 18.5675 32.2834 18.9666 32.7755 18.9666H51.4875C51.9796 18.9666 52.3784 18.5675 52.3784 18.0754C52.3784 17.5833 51.9796 17.1846 51.4875 17.1846Z" fill="#0066CC"/>
<path d="M51.4876 13.0854H48.9928C48.5007 13.0854 48.1016 13.4842 48.1016 13.9767C48.1016 14.4688 48.5007 14.8675 48.9928 14.8675H51.4876C51.9797 14.8675 52.3784 14.4688 52.3784 13.9767C52.3784 13.4842 51.9797 13.0854 51.4876 13.0854Z" fill="#0066CC"/>
<path d="M32.7755 14.8675H45.4281C45.9202 14.8675 46.3194 14.4688 46.3194 13.9767C46.3194 13.4842 45.9202 13.0854 45.4281 13.0854H32.7755C32.2834 13.0854 31.8843 13.4842 31.8843 13.9767C31.8843 14.4688 32.2834 14.8675 32.7755 14.8675Z" fill="#0066CC"/>
<path d="M14.7614 6.03194C15.1967 6.03194 15.5803 5.70373 15.6431 5.27251C15.698 4.89531 15.5025 4.5172 15.162 4.34646C14.8214 4.17571 14.4021 4.24346 14.1315 4.51125C13.5781 5.05919 13.9878 6.03194 14.7614 6.03194Z" fill="#0066CC"/>
<path d="M27.4146 6.03256C27.9072 6.03256 28.3059 5.63385 28.3059 5.14175C28.3059 4.64966 27.9072 4.25049 27.4146 4.25049H18.1481C17.656 4.25049 17.2568 4.64966 17.2568 5.14175C17.2568 5.63385 17.656 6.03256 18.1481 6.03256H27.4146Z" fill="#0066CC"/>
</svg>
