<svg width="60" height="60" viewBox="0 0 60 60" fill="none" xmlns="http://www.w3.org/2000/svg">
<path d="M15.9373 60C15.6887 59.9999 15.4503 59.9011 15.2745 59.7253L4.02449 48.4753C3.89342 48.3442 3.80416 48.1772 3.768 47.9953C3.73185 47.8135 3.75041 47.625 3.82135 47.4538C3.89229 47.2825 4.01242 47.1361 4.16656 47.0331C4.32069 46.93 4.50191 46.875 4.6873 46.875H15.9373C16.1859 46.875 16.4244 46.9738 16.6002 47.1496C16.776 47.3254 16.8748 47.5639 16.8748 47.8125V59.0625C16.8748 59.3111 16.776 59.5496 16.6002 59.7254C16.4244 59.9012 16.1859 60 15.9373 60ZM6.95043 48.75L14.9998 56.7994V48.75H6.95043Z" fill="#0066CC"/>
<path d="M50.625 60H15.9375C15.6889 59.9999 15.4505 59.9011 15.2747 59.7253L4.02469 48.4753C3.84886 48.2995 3.75005 48.0611 3.75 47.8125V0.9375C3.75 0.68886 3.84877 0.450403 4.02459 0.274587C4.2004 0.0987721 4.43886 0 4.6875 0L51.5625 0C51.8111 0 52.0496 0.0987721 52.2254 0.274587C52.4012 0.450403 52.5 0.68886 52.5 0.9375V43.125H50.625V1.875H5.625V47.4244L16.3256 58.125H50.625V60Z" fill="#0066CC"/>
<path d="M22.5 54.375H39.375V56.25H22.5V54.375Z" fill="#0066CC"/>
<path d="M18.75 54.375H20.625V56.25H18.75V54.375Z" fill="#0066CC"/>
<path d="M18.75 50.625H35.625V52.5H18.75V50.625Z" fill="#0066CC"/>
<path d="M54.3748 59.9998C54.1262 59.9997 53.8878 59.9009 53.712 59.7251L43.3995 49.4126C43.2237 49.2368 43.125 48.9984 43.125 48.7498C43.125 48.5012 43.2237 48.2628 43.3995 48.087L48.087 43.3995C48.2628 43.2237 48.5012 43.125 48.7498 43.125C48.9984 43.125 49.2368 43.2237 49.4126 43.3995L59.7251 53.712C59.9009 53.8878 59.9996 54.1262 59.9996 54.3748C59.9996 54.6234 59.9009 54.8618 59.7251 55.0376L55.0376 59.7251C54.8618 59.9009 54.6234 59.9997 54.3748 59.9998ZM45.3879 48.7498L54.3748 57.7367L57.7367 54.3748L48.7498 45.3879L45.3879 48.7498Z" fill="#0066CC"/>
<path d="M39.6406 42.8506L40.9662 41.525L46.5902 47.1489L45.2646 48.4745L39.6406 42.8506Z" fill="#0066CC"/>
<path d="M41.5156 40.9756L42.8412 39.65L48.4652 45.2739L47.1396 46.5995L41.5156 40.9756Z" fill="#0066CC"/>
<path d="M46.2021 50.8994L50.8889 46.2127L52.2145 47.5383L47.5278 52.225L46.2021 50.8994Z" fill="#0066CC"/>
<path d="M28.125 47.8125C24.2312 47.8125 20.4248 46.6579 17.1872 44.4946C13.9496 42.3313 11.4262 39.2565 9.93613 35.6591C8.44603 32.0617 8.05615 28.1032 8.8158 24.2842C9.57545 20.4652 11.4505 16.9572 14.2038 14.2038C16.9572 11.4505 20.4652 9.57545 24.2842 8.8158C28.1032 8.05615 32.0617 8.44603 35.6591 9.93613C39.2565 11.4262 42.3313 13.9496 44.4946 17.1872C46.6579 20.4248 47.8125 24.2312 47.8125 28.125C47.8066 33.3446 45.7304 38.3488 42.0396 42.0396C38.3488 45.7304 33.3446 47.8066 28.125 47.8125ZM28.125 10.3125C24.602 10.3125 21.1582 11.3572 18.2289 13.3145C15.2997 15.2717 13.0166 18.0537 11.6684 21.3085C10.3202 24.5633 9.96747 28.1448 10.6548 31.6001C11.3421 35.0553 13.0385 38.2292 15.5297 40.7203C18.0208 43.2115 21.1947 44.9079 24.65 45.5952C28.1052 46.2825 31.6867 45.9298 34.9416 44.5816C38.1964 43.2334 40.9783 40.9504 42.9356 38.0211C44.8928 35.0919 45.9375 31.648 45.9375 28.125C45.9323 23.4024 44.054 18.8748 40.7146 15.5354C37.3752 12.1961 32.8476 10.3177 28.125 10.3125Z" fill="#0066CC"/>
<path d="M28.125 43.125C25.1583 43.125 22.2582 42.2453 19.7915 40.5971C17.3247 38.9488 15.4021 36.6062 14.2668 33.8653C13.1315 31.1244 12.8344 28.1084 13.4132 25.1987C13.992 22.2889 15.4206 19.6162 17.5184 17.5184C19.6162 15.4206 22.2889 13.992 25.1987 13.4132C28.1084 12.8344 31.1244 13.1315 33.8653 14.2668C36.6062 15.4021 38.9488 17.3247 40.5971 19.7915C42.2453 22.2582 43.125 25.1583 43.125 28.125C43.1203 32.1018 41.5384 35.9144 38.7264 38.7264C35.9144 41.5384 32.1018 43.1203 28.125 43.125ZM28.125 15C25.5291 15 22.9915 15.7698 20.8331 17.212C18.6748 18.6542 16.9925 20.704 15.9991 23.1023C15.0057 25.5006 14.7458 28.1396 15.2522 30.6856C15.7586 33.2316 17.0087 35.5702 18.8442 37.4058C20.6798 39.2413 23.0184 40.4914 25.5644 40.9978C28.1104 41.5042 30.7494 41.2443 33.1477 40.2509C35.546 39.2575 37.5959 37.5753 39.038 35.4169C40.4802 33.2585 41.25 30.7209 41.25 28.125C41.2463 24.6452 39.8623 21.3089 37.4017 18.8483C34.9411 16.3877 31.6048 15.0037 28.125 15Z" fill="#0066CC"/>
<path d="M25.3123 35.6248C25.0637 35.6247 24.8253 35.5259 24.6495 35.3501L19.962 30.6626C19.7862 30.4868 19.6875 30.2484 19.6875 29.9998C19.6875 29.7512 19.7862 29.5128 19.962 29.337L22.7745 26.5245C22.9503 26.3487 23.1887 26.25 23.4373 26.25C23.6859 26.25 23.9243 26.3487 24.1001 26.5245L25.3123 27.7367L32.1495 20.8995C32.3253 20.7237 32.5637 20.625 32.8123 20.625C33.0609 20.625 33.2993 20.7237 33.4751 20.8995L36.2876 23.712C36.4634 23.8878 36.5621 24.1262 36.5621 24.3748C36.5621 24.6234 36.4634 24.8618 36.2876 25.0376L25.9751 35.3501C25.7993 35.5259 25.5609 35.6247 25.3123 35.6248ZM21.9504 29.9998L25.3123 33.3617L34.2992 24.3748L32.8123 22.8879L25.9751 29.7251C25.7993 29.9009 25.5609 29.9996 25.3123 29.9996C25.0637 29.9996 24.8253 29.9009 24.6495 29.7251L23.4373 28.5129L21.9504 29.9998Z" fill="#0066CC"/>
<path d="M9.375 20.625H8.4375C8.18886 20.625 7.9504 20.5262 7.77459 20.3504C7.59877 20.1746 7.5 19.9361 7.5 19.6875V14.0625C7.5 13.8139 7.59877 13.5754 7.77459 13.3996C7.9504 13.2238 8.18886 13.125 8.4375 13.125H12.1875V15H9.375V20.625Z" fill="#0066CC"/>
<path d="M22.5 3.75H47.8125V5.625H22.5V3.75Z" fill="#0066CC"/>
<path d="M18.75 3.75H20.625V5.625H18.75V3.75Z" fill="#0066CC"/>
<path d="M15.9375 11.25H8.4375C8.18886 11.25 7.9504 11.1512 7.77459 10.9754C7.59877 10.7996 7.5 10.5611 7.5 10.3125V4.6875C7.5 4.43886 7.59877 4.2004 7.77459 4.02459C7.9504 3.84877 8.18886 3.75 8.4375 3.75H15.9375C16.1861 3.75 16.4246 3.84877 16.6004 4.02459C16.7762 4.2004 16.875 4.43886 16.875 4.6875V10.3125C16.875 10.5611 16.7762 10.7996 16.6004 10.9754C16.4246 11.1512 16.1861 11.25 15.9375 11.25ZM9.375 9.375H15V5.625H9.375V9.375Z" fill="#0066CC"/>
</svg>
