<svg width="60" height="60" viewBox="0 0 60 60" fill="none" xmlns="http://www.w3.org/2000/svg">
<path d="M59.295 22.0068L46.6488 9.36012C46.3105 9.02229 45.764 9.01131 45.4115 9.3354C45.2197 9.51164 45.1245 9.75197 45.1245 9.99275C45.1245 10.2212 45.2101 10.4487 45.3854 10.624L58.032 23.2706C58.1497 23.3883 58.2142 23.5444 58.2142 23.711C58.2142 23.8767 58.1497 24.0337 58.032 24.1505L52.619 29.5631C52.5013 29.6812 52.3452 29.7466 52.1786 29.7466C52.0129 29.7466 51.8568 29.6812 51.7392 29.5631L51.2173 29.0417C51.2164 29.0403 51.215 29.0403 51.2136 29.0394L35.1054 12.9307C35.1054 12.9298 35.104 12.9298 35.1031 12.9284L34.5373 12.3617C34.4192 12.2449 34.3551 12.0879 34.3551 11.9222C34.3551 11.7556 34.4192 11.5995 34.5373 11.4814L39.9499 6.0688C40.0712 5.94749 40.231 5.88661 40.3894 5.88661C40.5491 5.88661 40.7084 5.94749 40.8302 6.0688L42.3294 7.56844C42.6677 7.90627 43.2142 7.91725 43.5667 7.59316C43.7585 7.41692 43.8537 7.17659 43.8537 6.93581C43.8537 6.70692 43.7681 6.47987 43.5928 6.30455L42.0936 4.80537C41.1538 3.86696 39.6258 3.86696 38.6865 4.80537L33.2735 10.218C32.4412 11.0516 32.3483 12.3461 32.9924 13.2836L32.3469 13.5944C31.1586 14.1657 30.0197 14.846 28.9517 15.6187C28.5205 15.3747 28.0788 15.1426 27.6283 14.9256L26.9806 14.6139C27.2424 14.2216 27.383 13.7611 27.383 13.2786C27.383 12.6354 27.133 12.0316 26.678 11.5771L21.2627 6.16173C20.8081 5.70671 20.2039 5.45677 19.5612 5.45677C18.918 5.45677 18.3128 5.70671 17.8592 6.16173L0.704971 23.3155C0.249039 23.7705 -0.00227331 24.3793 1.54973e-05 25.0248C0.00230431 25.6794 0.287033 26.301 0.748916 26.7634L6.12031 32.1343C6.57487 32.5893 7.18003 32.8393 7.82182 32.8393C8.28873 32.8393 8.73414 32.7061 9.11774 32.4607L9.23447 32.6974C9.48212 33.1963 9.74991 33.6958 10.0333 34.1851V34.186C8.15278 36.0656 8.15552 39.0809 10.0346 40.9614L11.9225 42.8492C11.9284 42.8538 11.933 42.8584 11.9389 42.8634L16.5857 47.5101C16.5857 47.5115 16.5871 47.5124 16.5884 47.5138L21.2544 52.1789C21.2553 52.1812 21.2581 52.1825 21.2604 52.1848L23.4325 54.3569C24.2651 55.191 25.3725 55.6492 26.5517 55.6492C27.5674 55.6492 28.531 55.3072 29.3111 54.6787L29.3156 54.6833C29.9158 55.2834 30.6866 55.6931 31.5262 55.8149C32.7882 55.9957 34.0077 55.5851 34.8843 54.7071L35.2679 54.3235C36.1102 53.4817 36.503 52.3089 36.3959 51.1691C37.538 51.2762 38.7085 50.883 39.5485 50.042L39.933 49.6575C40.7748 48.8166 41.1667 47.6447 41.0595 46.5026C42.203 46.6102 43.3749 46.2179 44.2144 45.3774L44.5994 44.9924C45.4399 44.1515 45.8331 42.981 45.7246 41.8366C46.8667 41.946 48.0386 41.5519 48.8781 40.711L49.2654 40.3265C50.792 38.7984 50.792 36.3105 49.264 34.7825L48.9354 34.4529C49.606 33.4678 50.2121 32.4342 50.7394 31.3671L50.8538 31.1346C51.2448 31.3932 51.7007 31.5315 52.1782 31.5315C52.8227 31.5315 53.4279 31.2811 53.8824 30.8265L59.2955 25.4134C60.2348 24.4746 60.2348 22.9465 59.295 22.0068ZM8.76298 30.3706C8.7616 30.3706 8.76069 30.3719 8.76069 30.3729L8.26173 30.8718C8.02003 31.114 7.62544 31.114 7.38374 30.8718L1.96886 25.4569C1.85075 25.3388 1.78667 25.1832 1.78667 25.0175C1.78667 24.8518 1.85075 24.6961 1.96886 24.578L19.1217 7.42516C19.2393 7.30705 19.3954 7.24297 19.5612 7.24297C19.7269 7.24297 19.8825 7.30705 20.0006 7.42516L25.4159 12.84C25.5327 12.9568 25.5968 13.1129 25.5968 13.2786C25.5968 13.4452 25.5327 13.5999 25.4159 13.718L24.874 14.2596C24.8726 14.2596 24.8717 14.2609 24.8717 14.2623L8.76298 30.3706ZM11.2985 39.698C10.1148 38.5156 10.1148 36.5897 11.2985 35.406L13.8341 32.8704C14.2365 32.468 14.7725 32.2456 15.3429 32.2456C15.9132 32.2456 16.4493 32.468 16.8517 32.8704L17.2366 33.2554C18.0675 34.0867 18.0675 35.4408 17.2366 36.273L14.6974 38.8122C14.696 38.8136 14.6938 38.8145 14.6928 38.8172L12.5551 40.9545L11.2985 39.698ZM18.4831 46.883L19.6321 45.729C19.9796 45.3802 19.9791 44.8158 19.6307 44.4679C19.2819 44.1186 18.7157 44.119 18.3669 44.4692L17.2206 45.6196L13.8185 42.217L18.5001 37.5355C19.3323 36.7028 20.6863 36.7028 21.5176 37.5355L21.9026 37.92C22.7348 38.7513 22.7348 40.1054 21.9026 40.938L21.0516 41.7895C20.7033 42.1383 20.7033 42.7032 21.0521 43.0515C21.4004 43.4003 21.9658 43.4003 22.3146 43.0515L23.166 42.2001C23.9969 41.3692 25.3514 41.3692 26.1836 42.2001L26.5672 42.5851C27.3985 43.415 27.3994 44.7659 26.5723 45.5981C26.5709 45.5994 26.5695 45.6004 26.5672 45.6026L21.8857 50.2842L18.4831 46.883ZM28.4061 53.0949C27.9108 53.5902 27.252 53.863 26.5517 53.863C25.8504 53.863 25.1916 53.5902 24.6963 53.0949L23.1496 51.5481L27.8357 46.8615C28.6684 46.0339 30.0188 46.0352 30.8487 46.8652L31.2337 47.2497C32.0659 48.0824 32.0659 49.4364 31.2337 50.2677L28.4061 53.0949ZM34.0059 53.0615L33.6223 53.4451C33.2185 53.8474 32.6825 54.0699 32.1121 54.0699C31.5417 54.0699 31.0071 53.8474 30.6033 53.4451L30.5937 53.4341L32.4971 51.5311C33.0601 50.9667 33.4163 50.2709 33.5641 49.5422L34.2773 50.2618C34.2975 50.3579 34.3295 50.4522 34.3776 50.5437C34.8193 51.3645 34.6669 52.4004 34.0059 53.0615ZM49.1391 30.5756C48.6973 31.4674 48.1984 32.3357 47.6477 33.167L46.7285 32.2474C46.6667 32.1856 46.6021 32.1247 46.5367 32.0666L37.8547 23.3846C37.5165 23.0463 36.9699 23.0358 36.6188 23.3608C36.427 23.5371 36.3318 23.7765 36.3318 24.0173C36.3318 24.2457 36.4174 24.4732 36.5927 24.6485L45.2934 33.3492C45.3076 33.3625 45.3209 33.3753 45.3351 33.3886C45.379 33.428 45.422 33.4673 45.4651 33.5113L48.0006 36.0455C48.8328 36.8781 48.8328 38.2322 48.0029 39.0635L47.6156 39.448C46.956 40.109 45.921 40.2615 45.0947 39.817C45.0219 39.779 44.946 39.7492 44.8658 39.7305L40.4155 35.2586C40.0667 34.9084 39.5009 34.907 39.152 35.2549C38.8019 35.6037 38.8005 36.1681 39.1484 36.5183L43.6285 41.0191C43.6487 41.0845 43.6738 41.15 43.7072 41.2118C44.149 42.0348 43.9966 43.0698 43.3369 43.7309L42.9519 44.1154C42.2909 44.775 41.255 44.9274 40.4283 44.4834C40.3688 44.4523 40.3056 44.4285 40.2415 44.4083L35.766 39.9126C35.4172 39.5625 34.8514 39.5611 34.5025 39.909C34.1524 40.2578 34.1514 40.8236 34.4989 41.1724L38.9566 45.6493C38.9767 45.7281 39.0028 45.8041 39.0426 45.8778C39.4844 46.6995 39.3306 47.7345 38.6709 48.3955L38.286 48.7804C37.6249 49.4401 36.5904 49.5939 35.7683 49.1517C35.7623 49.148 35.7554 49.1457 35.7481 49.1425C35.711 49.1233 35.6744 49.1068 35.6351 49.0922L32.5245 45.9625C32.4614 45.8993 32.3909 45.8471 32.3158 45.8068L32.1121 45.6031C31.2511 44.7421 30.0851 44.3658 28.9586 44.4752C29.0684 43.3486 28.6917 42.1827 27.8306 41.3216L27.4461 40.938C26.5851 40.077 25.4205 39.7007 24.294 39.8101C24.4034 38.6836 24.0271 37.5176 23.166 36.6566L22.7811 36.2721C21.92 35.411 20.7541 35.0347 19.6275 35.1441C19.736 34.0176 19.3597 32.8526 18.4987 31.992L18.1151 31.607C16.5857 30.079 14.0991 30.079 12.5702 31.607L11.3365 32.8622C11.1612 32.5454 10.9946 32.2263 10.8376 31.9073L10.4791 31.1808L25.686 15.9739L26.8542 16.536C27.0877 16.6477 27.3184 16.7672 27.5487 16.8885L21.7081 22.7287C21.3295 23.1063 21.1221 23.6089 21.1221 24.1422C21.1221 24.6769 21.3295 25.1795 21.7081 25.5572C22.9134 26.7625 24.5164 27.4267 26.2216 27.4267C27.9272 27.4267 29.5299 26.7625 30.7365 25.5572L35.3824 20.9113L36.2933 19.999C36.6421 19.6502 36.6421 19.0844 36.2933 18.7365C35.9445 18.3877 35.3796 18.3877 35.0308 18.7365L29.4731 24.2937C28.6047 25.1617 27.4507 25.6405 26.2216 25.6405C24.9939 25.6405 23.8399 25.1617 22.9706 24.2937C22.9193 24.2425 22.9083 24.183 22.9083 24.1422C22.9083 24.1019 22.9193 24.0434 22.9706 23.9912L29.5967 17.3646C30.6921 16.5296 31.8786 15.8022 33.1206 15.2044L34.2892 14.6409L49.4975 29.8492L49.1391 30.5756Z" fill="#0066CC"/>
<path d="M53.7178 24.357C53.7178 24.8504 53.3182 25.2501 52.8247 25.2501C52.3317 25.2501 51.9316 24.8504 51.9316 24.357C51.9316 23.864 52.3317 23.4639 52.8247 23.4639C53.3182 23.4639 53.7178 23.864 53.7178 24.357Z" fill="#0066CC"/>
<path d="M51.4756 22.1143C51.4756 22.6078 51.0755 23.0078 50.5821 23.0078C50.0891 23.0078 49.689 22.6078 49.689 22.1143C49.689 21.6213 50.0891 21.2212 50.5821 21.2212C51.0755 21.2212 51.4756 21.6213 51.4756 22.1143Z" fill="#0066CC"/>
<path d="M19.3087 14.4248C19.3087 14.9178 18.909 15.3179 18.4156 15.3179C17.9221 15.3179 17.5225 14.9178 17.5225 14.4248C17.5225 13.9313 17.9221 13.5312 18.4156 13.5312C18.909 13.5312 19.3087 13.9313 19.3087 14.4248Z" fill="#0066CC"/>
<path d="M21.4068 12.3262C21.4068 12.8197 21.0072 13.2198 20.5137 13.2198C20.0202 13.2198 19.6206 12.8197 19.6206 12.3262C19.6206 11.8332 20.0202 11.4331 20.5137 11.4331C21.0072 11.4331 21.4068 11.8332 21.4068 12.3262Z" fill="#0066CC"/>
</svg>
