<svg width="60" height="60" viewBox="0 0 60 60" fill="none" xmlns="http://www.w3.org/2000/svg">
<path d="M8.4375 41.25H13.125V43.125H8.4375V41.25Z" fill="#0066CC"/>
<path d="M18.75 34.6875H30V36.5625H18.75V34.6875Z" fill="#0066CC"/>
<path d="M8.4375 34.6875H15.9375V36.5625H8.4375V34.6875Z" fill="#0066CC"/>
<path d="M21.5625 28.125H34.6875V30H21.5625V28.125Z" fill="#0066CC"/>
<path d="M8.4375 28.125H18.75V30H8.4375V28.125Z" fill="#0066CC"/>
<path d="M24.375 21.5625H38.4375V23.4375H24.375V21.5625Z" fill="#0066CC"/>
<path d="M14.0625 21.5625H21.5625V23.4375H14.0625V21.5625Z" fill="#0066CC"/>
<path d="M8.4375 21.5625H12.1875V23.4375H8.4375V21.5625Z" fill="#0066CC"/>
<path d="M16.875 15.9375H27.1875V17.8125H16.875V15.9375Z" fill="#0066CC"/>
<path d="M8.4375 15.9375H14.0625V17.8125H8.4375V15.9375Z" fill="#0066CC"/>
<path d="M17.8125 10.3125H27.1875V12.1875H17.8125V10.3125Z" fill="#0066CC"/>
<path d="M13.125 10.3125H15V12.1875H13.125V10.3125Z" fill="#0066CC"/>
<path d="M57.6526 12.311L51.0901 8.56103C50.9819 8.49917 50.8624 8.45952 50.7386 8.44441C50.6149 8.4293 50.4893 8.43903 50.3694 8.47302C50.2494 8.50702 50.1375 8.5646 50.0401 8.6424C49.9426 8.72019 49.8617 8.81664 49.802 8.9261L32.927 39.8636L32.928 39.8642C32.8525 40.0016 32.8128 40.1558 32.8125 40.3125V47.8125H8.4375V49.6875H33.75C33.9454 49.6875 34.1359 49.6265 34.2949 49.5129L40.8574 44.8254C40.9722 44.7428 41.0668 44.6352 41.134 44.5107L41.1355 44.5115L58.0105 13.574C58.128 13.3585 58.1564 13.1056 58.0895 12.8694C58.0226 12.6333 57.8657 12.4328 57.6526 12.311ZM39.9474 42.7741L38.3861 41.8819L49.2703 21.7343L50.912 22.6724L39.9474 42.7741ZM35.0132 39.9545L45.9777 19.8529L47.6418 20.8037L36.7576 40.9514L35.0132 39.9545ZM46.8758 18.2064L47.9827 16.1771L52.9169 18.9967L51.81 21.026L46.8758 18.2064ZM34.6875 46.9283V41.928L38.5766 44.1503L34.6875 46.9283ZM53.815 17.3502L48.8807 14.5306L50.9901 10.6634L55.9244 13.483L53.815 17.3502Z" fill="#0066CC"/>
<path d="M26.25 41.25H30V43.125H26.25V41.25Z" fill="#0066CC"/>
<path d="M15.9375 41.25H23.4375V43.125H15.9375V41.25Z" fill="#0066CC"/>
<path d="M45 53.4375C44.9991 54.1832 44.7026 54.8981 44.1753 55.4253C43.648 55.9526 42.9332 56.2492 42.1875 56.25H6.5625C5.81684 56.2492 5.10197 55.9526 4.5747 55.4253C4.04744 54.8981 3.75085 54.1832 3.75 53.4375V6.56252C3.75085 5.81686 4.04744 5.10198 4.5747 4.57472C5.10197 4.04746 5.81684 3.75087 6.5625 3.75002H30.3217C30.5288 3.75015 30.7353 3.77298 30.9375 3.81808V13.125C30.9389 14.3678 31.4332 15.5593 32.312 16.438C33.1908 17.3168 34.3822 17.8111 35.625 17.8125H38.4375V15.9375H35.625C34.8793 15.9367 34.1645 15.6401 33.6372 15.1128C33.1099 14.5856 32.8133 13.8707 32.8125 13.125V5.07593L42.4823 14.7456L43.8081 13.4197L33.6363 3.24808C33.2021 2.81139 32.6855 2.46518 32.1166 2.22949C31.5476 1.9938 30.9375 1.87332 30.3217 1.87502H6.5625C5.31973 1.87643 4.12827 2.37074 3.2495 3.24951C2.37073 4.12829 1.87641 5.31975 1.875 6.56252V53.4375C1.87641 54.6803 2.37073 55.8718 3.2495 56.7505C4.12827 57.6293 5.31973 58.1236 6.5625 58.125H42.1875C43.4303 58.1236 44.6217 57.6293 45.5005 56.7505C46.3793 55.8718 46.8736 54.6803 46.875 53.4375V42.1875H45V53.4375Z" fill="#0066CC"/>
</svg>
