<svg width="60" height="60" viewBox="0 0 60 60" fill="none" xmlns="http://www.w3.org/2000/svg">
<g clip-path="url(#clip0_44_31460)">
<path d="M57.9237 4.52792C57.7983 4.05818 57.3158 3.77917 56.8462 3.90429L56.2673 4.05876C56.0235 3.54183 55.6889 3.0654 55.2714 2.64965C54.8491 2.22909 54.3693 1.89984 53.8571 1.66121L54.0114 1.08783C54.3073 -0.0112954 52.607 -0.468832 52.3113 0.630406L52.1552 1.21037C51.011 1.11435 49.8405 1.40803 48.8616 2.09082L48.4958 1.72659C47.6893 0.92338 46.447 2.17098 47.2535 2.9742L47.5596 3.27903L45.0346 5.79571L44.7223 5.48466C43.9158 4.68145 42.6733 5.92894 43.4798 6.73215L43.7875 7.03862L41.2624 9.55531L40.9486 9.24273C40.1421 8.43952 38.8998 9.68712 39.7063 10.4903L40.6416 11.4218C40.98 11.7588 41.5459 11.759 41.8842 11.4216L49.3661 3.96451C50.7587 2.82724 52.6777 2.55164 54.029 3.89737C55.2684 5.13159 55.271 7.22701 54.0289 8.46405L32.4101 30.0084L30.8132 28.4181L52.4217 6.88345C53.228 6.08 51.9851 4.83263 51.1789 5.63631L29.5657 27.1756L27.8196 25.4368L38.1105 15.1796C38.4504 14.8396 38.4501 14.2721 38.1103 13.9323L37.1749 13.0008C36.3683 12.1977 35.126 13.4451 35.9325 14.2483L36.2417 14.5563L33.7167 17.0731L33.4012 16.7589C32.5947 15.9557 31.3523 17.2031 32.1588 18.0064L32.4697 18.316L30.1476 20.6304L29.8372 20.3213C29.0307 19.5181 27.7882 20.7655 28.5947 21.5688L28.9006 21.8734L26.5709 24.1954C24.8767 22.545 22.2757 22.3553 20.3733 23.6265C19.1408 22.9867 17.7184 22.8292 16.3855 23.1694L16.0259 18.9259C15.7574 15.6351 10.4707 16.0243 10.7428 19.3573L11.3932 27.037L3.64278 34.7554C2.31853 36.0742 1.96182 38.2154 2.79531 39.8887C2.74566 40.7618 2.30656 48.4745 2.05772 52.8537C1.69302 59.2725 9.85838 62.3075 14.2137 57.9704L33.786 38.339C35.7756 36.3575 35.5951 33.1773 33.6577 31.2507L35.974 28.9424L36.3393 29.3062C37.1454 30.109 38.3885 28.8621 37.5817 28.0587L37.2211 27.6996L39.5643 25.3644L39.8782 25.677C40.6845 26.4797 41.9274 25.2329 41.1206 24.4295L40.8115 24.1216L43.3367 21.605L43.6519 21.9189C44.458 22.7218 45.7011 21.4749 44.8943 20.6714L44.5839 20.3622L47.109 17.8457L47.4256 18.1608C48.2317 18.9637 49.4746 17.7167 48.6679 16.9132L48.3561 16.6028L50.8814 14.0862L51.1993 14.4028C52.0055 15.2055 53.2484 13.9587 52.4417 13.1553L52.1285 12.8434L54.6537 10.3268L54.9729 10.6447C55.7791 11.4475 57.022 10.2005 56.2153 9.39708L55.8446 9.02793C56.5098 8.078 56.8169 6.91303 56.721 5.7598L57.3002 5.60521C57.7698 5.4802 58.049 4.99766 57.9237 4.52792ZM18.9331 24.9281L16.7212 27.1276L16.5373 24.9579C17.3161 24.6942 18.156 24.6863 18.9331 24.9281ZM12.9713 56.7228C9.74405 59.9367 3.54219 57.7686 3.81556 52.9535C4.00008 49.7074 4.28906 44.6294 4.44646 41.8631C5.00799 42.4223 5.56953 42.9816 6.13118 43.5407L5.6031 52.9042C5.42609 56.0404 9.3533 57.8168 11.5917 55.5914C12.7506 54.4393 14.2583 52.9389 15.5373 51.6657C15.5373 51.6657 15.5373 51.6657 15.5374 51.6656C17 50.2098 18.1635 49.051 18.1635 49.051C18.509 48.6351 18.509 48.2193 18.1635 47.8034L14.8489 44.5025C14.7005 44.3548 14.6095 44.1588 14.5922 43.9483L13.9712 36.6147C13.8753 35.4808 12.1207 35.6289 12.2168 36.7633L12.8376 44.0942C12.8887 44.719 13.1617 45.307 13.6065 45.75L16.2946 48.4272C15.9422 48.7781 15.4627 49.2555 14.9137 49.802L5.18559 40.1143C3.94972 39.1013 3.70382 37.1794 4.88522 36.0029L11.5872 29.3285L11.8217 32.0982C11.9178 33.2328 13.6722 33.0837 13.5761 31.9496L12.4974 19.2111C12.4147 18.1973 14.189 18.0635 14.2713 19.0716L14.728 24.4596C14.7282 24.4629 14.7286 24.4663 14.7288 24.4696L16.3137 43.1656C16.3313 43.3734 16.422 43.568 16.5697 43.715L20.6759 47.8042C21.0078 48.2007 21.0204 48.6022 20.7134 49.0083L12.9713 56.7228ZM13.6659 51.0444C12.5427 52.1623 11.3236 53.3754 10.3504 54.343C9.25025 55.4365 7.27443 54.5352 7.36106 53.0035L7.80087 45.2036L13.6659 51.0444ZM32.54 37.0951L22.4305 47.279C22.3026 47.015 22.1324 46.7703 21.9183 46.557L18.0408 42.6956L16.9152 29.4177L20.8742 25.4807C22.1133 24.2467 24.1293 24.2467 25.3684 25.4807L32.5435 32.6262C33.7694 33.8469 33.7645 35.8758 32.54 37.0951Z" fill="#0066CC"/>
<path d="M24.1995 29.8075C23.3943 29.003 22.1498 30.248 22.9549 31.0528L27.7927 35.8885C28.5978 36.693 29.8425 35.448 29.0374 34.6432L24.1995 29.8075Z" fill="#0066CC"/>
<path d="M22.6107 33.7724C21.8055 32.9679 20.5609 34.2129 21.366 35.0176L25.0149 38.665C25.82 39.4695 27.0647 38.2245 26.2596 37.4198L22.6107 33.7724Z" fill="#0066CC"/>
<path d="M21.1927 37.6484C20.3876 36.8437 19.1429 38.089 19.948 38.8936L22.3287 41.2733C23.1336 42.0779 24.3784 40.8328 23.5733 40.0282L21.1927 37.6484Z" fill="#0066CC"/>
</g>
<defs>
<clipPath id="clip0_44_31460">
<rect width="60" height="60" fill="white"/>
</clipPath>
</defs>
</svg>
