<svg width="51" height="60" viewBox="0 0 51 60" fill="none" xmlns="http://www.w3.org/2000/svg">
<path d="M47.1562 17.8125H34.5V4.21875C34.499 3.3488 34.153 2.51476 33.5379 1.89962C32.9227 1.28447 32.0887 0.938462 31.2188 0.9375H4.03125C3.1613 0.938462 2.32726 1.28447 1.71212 1.89962C1.09697 2.51476 0.750962 3.3488 0.75 4.21875V55.7812C0.750962 56.6512 1.09697 57.4852 1.71212 58.1004C2.32726 58.7155 3.1613 59.0615 4.03125 59.0625H31.2188C32.0887 59.0615 32.9227 58.7155 33.5379 58.1004C34.153 57.4852 34.499 56.6512 34.5 55.7812V42.1875H47.1562C48.0262 42.1865 48.8602 41.8405 49.4754 41.2254C50.0905 40.6102 50.4365 39.7762 50.4375 38.9062V21.0938C50.4365 20.2238 50.0905 19.3898 49.4754 18.7746C48.8602 18.1595 48.0262 17.8135 47.1562 17.8125ZM22.0488 2.8125L21.5801 4.6875H13.6699L13.2012 2.8125H22.0488ZM32.625 55.7812C32.6247 56.1541 32.4764 56.5116 32.2128 56.7753C31.9491 57.0389 31.5916 57.1872 31.2188 57.1875H4.03125C3.65838 57.1872 3.30088 57.0389 3.03722 56.7753C2.77357 56.5116 2.62531 56.1541 2.625 55.7812V4.21875C2.62531 3.84588 2.77357 3.48838 3.03722 3.22472C3.30088 2.96107 3.65838 2.81281 4.03125 2.8125H11.2676L12.0281 5.85234C12.0788 6.05516 12.1959 6.23522 12.3606 6.36389C12.5254 6.49256 12.7284 6.56247 12.9375 6.5625H22.3125C22.5216 6.56247 22.7246 6.49256 22.8894 6.36389C23.0541 6.23522 23.1712 6.05516 23.2219 5.85234L23.9824 2.8125H31.2188C31.5916 2.81281 31.9491 2.96107 32.2128 3.22472C32.4764 3.48838 32.6247 3.84588 32.625 4.21875V17.8125H19.9688C19.0988 17.8135 18.2648 18.1595 17.6496 18.7746C17.0345 19.3898 16.6885 20.2238 16.6875 21.0938V38.9062C16.6885 39.7762 17.0345 40.6102 17.6496 41.2254C18.2648 41.8405 19.0988 42.1865 19.9688 42.1875H32.625V55.7812ZM48.5625 38.9062C48.5622 39.2791 48.4139 39.6366 48.1503 39.9003C47.8866 40.1639 47.5291 40.3122 47.1562 40.3125H19.9688C19.5959 40.3122 19.2384 40.1639 18.9747 39.9003C18.7111 39.6366 18.5628 39.2791 18.5625 38.9062V29.0625H48.5625V38.9062ZM48.5625 27.1875H18.5625V24.375H48.5625V27.1875ZM48.5625 22.5H18.5625V21.0938C18.5628 20.7209 18.7111 20.3634 18.9747 20.0997C19.2384 19.8361 19.5959 19.6878 19.9688 19.6875H47.1562C47.5291 19.6878 47.8866 19.8361 48.1503 20.0997C48.4139 20.3634 48.5622 20.7209 48.5625 21.0938V22.5Z" fill="#0066CC"/>
</svg>
